<svg width="232" height="54" viewBox="0 0 232 54" fill="none" xmlns="http://www.w3.org/2000/svg">
<g filter="url(#filter0_d_42_12)">
<path d="M218.251 26.381L220.098 30.11H225.989L215.337 9.11501H209.384L198.763 30.11H204.435L206.281 26.381H218.251ZM208.162 22.5582L212.234 14.2542H212.298L216.37 22.5582H208.162ZM167.921 9.24011H159.963V30.11H165.007V14.5361H165.07L173.122 30.1411H177.006L185.058 14.5361H185.122V30.11H190.51V9.24011H182.551L175.315 23.4356H175.221L167.921 9.24011ZM119.797 9.24011H114.314V30.11H119.797V9.24011ZM86.744 30.11V22.9653H92.4773L98.5239 30.11H104.759L98.2419 22.5582C101.5 21.6807 103.725 19.4559 103.725 16.0714C103.725 11.7785 100.686 9.24011 94.9526 9.24011H81.2927V30.11H86.744ZM86.744 18.9231V13.4392H93.8872C96.9578 13.4392 98.2108 14.4106 98.2108 16.1654C98.2108 18.0144 96.6758 18.9231 93.6366 18.9231H86.744ZM63.091 9.24011H51.0604V30.11H56.5117V23.5607H62.809C68.5423 23.5607 72.1455 20.8973 72.1455 16.3221C72.1455 11.9979 68.8869 9.24011 63.091 9.24011ZM56.5117 19.3614V13.4706H62.2763C65.4406 13.4706 66.7255 14.6614 66.7255 16.4161C66.7255 18.234 65.5662 19.3614 62.0257 19.3614H56.5117ZM141.272 17.4071C148.142 18.3883 151.347 19.8346 151.347 23.8755C151.347 28.006 146.555 30.517 140.347 30.517C136.653 30.517 133.418 29.8251 130.562 28.6679C130.419 28.6113 130.219 28.5249 130.019 28.4383V23.631C130.705 23.998 131.525 24.3766 132.148 24.627C134.667 25.647 137.604 26.3298 140.088 26.3298C143.929 26.3298 145.661 25.4651 145.661 24.1351C145.661 22.951 144.504 22.4322 139.772 21.7671C133.046 20.8157 129.637 19.3724 129.637 15.3283C129.637 11.69 133.853 8.83297 140.231 8.83297C143.812 8.83297 146.525 9.40838 149.096 10.5061C149.134 10.521 149.173 10.5358 149.212 10.5537V15.3582C148.663 15.0988 148.115 14.8392 147.507 14.6067C145.169 13.6553 142.512 13.0201 139.945 13.0201C136.683 13.0201 135.297 13.9416 135.297 15.0391C135.297 16.1365 136.364 16.6854 141.272 17.4071Z" fill="#100F0D"/>
<path d="M225.083 10.8178H225.63C225.943 10.8178 226.072 10.922 226.072 11.1564V11.1826C226.072 11.3909 225.943 11.5211 225.63 11.5211H225.083V10.8178ZM226.567 11.2086V11.1304C226.567 10.6877 226.228 10.3751 225.63 10.3751H224.588V12.7714H225.083V11.964H225.633L226.045 12.7714H226.594L226.084 11.8233C226.394 11.7294 226.567 11.4983 226.567 11.2086Z" fill="#100F0D"/>
<path d="M225.525 13.7093C224.301 13.7093 223.415 12.8237 223.415 11.5733C223.415 10.3229 224.301 9.43727 225.525 9.43727C226.749 9.43727 227.634 10.3229 227.634 11.5733C227.634 12.8237 226.749 13.7093 225.525 13.7093ZM225.525 9.09861C224.119 9.09861 223.05 10.1666 223.05 11.5733C223.05 12.98 224.119 14.048 225.525 14.048C226.932 14.048 228 12.98 228 11.5733C228 10.1666 226.932 9.09861 225.525 9.09861Z" fill="#100F0D"/>
<path d="M26.5732 30.1097V9.20237L37.4944 30.1097H26.5732Z" fill="#51C7EB"/>
<path d="M26.5717 9.20221L15.652 30.11H26.5717V45.1622L4 22.5815L15.5437 11.0311L17.3767 9.20221L26.5717 0.000799835V9.20221Z" fill="#51C7EB"/>
<path d="M144.694 42.528V41.4462H144.7C145.359 41.7787 146.001 41.9422 146.559 41.9422C146.981 41.9422 147.196 41.8408 147.196 41.6434C147.196 41.4462 147.055 41.3954 146.21 41.2602C145.286 41.1138 144.672 40.8377 144.672 40.0431C144.672 39.3049 145.32 38.736 146.587 38.736C147.094 38.736 147.624 38.8429 148.114 39.0515V40.1221L148.108 40.1277C147.641 39.8573 147.01 39.6882 146.503 39.6882C146.052 39.6882 145.872 39.7952 145.872 39.9757C145.872 40.2066 146.148 40.2291 146.841 40.3474C147.765 40.5053 148.379 40.7645 148.379 41.5982C148.379 42.2465 147.894 42.8944 146.503 42.8944C145.815 42.8944 145.269 42.7534 144.694 42.528ZM139.65 38.8429H140.833V40.2968H141.318L142.473 38.8429H143.802L143.808 38.8486L142.298 40.7362L143.892 42.7816L143.887 42.7872H142.507L141.312 41.2716H140.833V42.7872H139.65V38.8429ZM134.573 38.8429H136.871C137.919 38.8429 138.431 39.3388 138.431 40.2572C138.431 40.8885 138.172 41.3167 137.665 41.5195L138.6 42.7872H137.259L136.533 41.7506H135.755V42.7872H134.573V38.8429ZM136.719 40.8264C137.113 40.8264 137.254 40.6067 137.254 40.3079C137.254 40.0095 137.113 39.7952 136.719 39.7952H135.755V40.8264H136.719ZM128.88 40.8153C128.88 39.5305 129.753 38.7247 131.134 38.7247C132.514 38.7247 133.387 39.5305 133.387 40.8153C133.387 42.0999 132.514 42.9056 131.134 42.9056C129.753 42.9056 128.88 42.0999 128.88 40.8153ZM132.21 40.8153C132.21 40.1333 131.816 39.7276 131.134 39.7276C130.452 39.7276 130.058 40.1333 130.058 40.8153C130.058 41.4968 130.452 41.9025 131.128 41.9025C131.81 41.9025 132.21 41.4968 132.21 40.8153ZM121.437 38.8429H122.698L123.341 41.5816H123.403L124.237 38.8429H125.391L126.208 41.5816H126.27L126.901 38.8429H128.107L127.07 42.7872H125.521L124.8 40.4095H124.766L124.034 42.7872H122.479L121.437 38.8429ZM118.009 39.8573H116.629L116.674 38.8429H120.533L120.578 39.8573H119.198V42.7872H118.009V39.8573ZM112.143 38.8429H115.59L115.636 39.8008H113.32V40.3419H115.14V41.2152H113.32V41.8293H115.703L115.658 42.7872H112.143V38.8429ZM106.67 38.8429H107.899L109.594 41.08H109.611V38.8429H110.738V42.7872H109.549L107.814 40.4939H107.797V42.7872H106.67V38.8429ZM98.8215 40.8153C98.8215 39.5305 99.6947 38.7247 101.075 38.7247C102.455 38.7247 103.329 39.5305 103.329 40.8153C103.329 42.0999 102.455 42.9056 101.075 42.9056C99.6947 42.9056 98.8215 42.0999 98.8215 40.8153ZM102.151 40.8153C102.151 40.1333 101.757 39.7276 101.075 39.7276C100.393 39.7276 99.9986 40.1333 99.9986 40.8153C99.9986 41.4968 100.393 41.9025 101.069 41.9025C101.751 41.9025 102.151 41.4968 102.151 40.8153ZM95.4787 39.8573H94.0983L94.1435 38.8429H98.0025L98.0476 39.8573H96.667V42.7872H95.4787V39.8573ZM90.5528 38.8429H91.736V41.7673H93.8259L93.7808 42.7872H90.5528V38.8429ZM86.241 38.8429H88.1451L89.514 42.7872H88.2746L87.9987 41.9704H86.3704L86.089 42.7872H84.8721L86.241 38.8429ZM86.6577 41.0857H87.717L87.2944 39.846H87.0804L86.6577 41.0857ZM77.3894 40.8153C77.3894 39.5305 78.2624 38.7247 79.6428 38.7247C81.023 38.7247 81.8962 39.5305 81.8962 40.8153C81.8962 42.0999 81.023 42.9056 79.6428 42.9056C78.2624 42.9056 77.3894 42.0999 77.3894 40.8153ZM80.7187 40.8153C80.7187 40.1333 80.3246 39.7276 79.6428 39.7276C78.9612 39.7276 78.5667 40.1333 78.5667 40.8153C78.5667 41.4968 78.9612 41.9025 79.6371 41.9025C80.3187 41.9025 80.7187 41.4968 80.7187 40.8153ZM73.3423 38.8429H74.5253V41.7673H76.6154L76.5703 42.7872H73.3423V38.8429ZM69.0304 38.8429H70.9346L72.3035 42.7872H71.0641L70.788 41.9704H69.1599L68.8783 42.7872H67.6617L69.0304 38.8429ZM69.4472 41.0857H70.5065L70.0839 39.846H69.8699L69.4472 41.0857ZM63.3048 38.8429H65.6312C66.6003 38.8429 67.113 39.4008 67.113 40.3136C67.113 41.3448 66.4537 41.8181 65.5412 41.8181H64.4877V42.7872H63.3048V38.8429ZM65.4228 40.8885C65.7892 40.8885 65.9468 40.6517 65.9468 40.3419C65.9468 39.9868 65.7722 39.7952 65.4117 39.7952H64.4877V40.8885H65.4228ZM57.3091 41.5252L55.5797 38.8429H56.9091L57.8839 40.415H57.9401L58.926 38.8429H60.2218L58.4979 41.5195V42.7872H57.3091V41.5252ZM51.0481 38.8429H53.5325C54.355 38.8429 54.8508 39.1811 54.8508 39.8348C54.8508 40.2741 54.6761 40.5842 54.186 40.742C54.693 40.9448 54.9352 41.2095 54.9352 41.6773C54.9352 42.4943 54.31 42.7872 53.4427 42.7872H51.0481V38.8429ZM53.2169 40.4207C53.5439 40.4207 53.679 40.3193 53.679 40.0658C53.679 39.829 53.5325 39.7276 53.2169 39.7276H52.2142V40.4207H53.2169ZM53.2736 41.8914C53.6226 41.8914 53.7579 41.7787 53.7579 41.5195C53.7579 41.2772 53.6226 41.1532 53.2736 41.1532H52.2142V41.8971L53.2736 41.8914Z" fill="#7A7777"/>
</g>
<defs>
<filter id="filter0_d_42_12" x="0" y="0.000854492" width="232" height="53.1614" filterUnits="userSpaceOnUse" color-interpolation-filters="sRGB">
<feFlood flood-opacity="0" result="BackgroundImageFix"/>
<feColorMatrix in="SourceAlpha" type="matrix" values="0 0 0 0 0 0 0 0 0 0 0 0 0 0 0 0 0 0 127 0" result="hardAlpha"/>
<feOffset dy="4"/>
<feGaussianBlur stdDeviation="2"/>
<feComposite in2="hardAlpha" operator="out"/>
<feColorMatrix type="matrix" values="0 0 0 0 0 0 0 0 0 0 0 0 0 0 0 0 0 0 0.25 0"/>
<feBlend mode="normal" in2="BackgroundImageFix" result="effect1_dropShadow_42_12"/>
<feBlend mode="normal" in="SourceGraphic" in2="effect1_dropShadow_42_12" result="shape"/>
</filter>
</defs>
</svg>
