<svg width="156" height="56" viewBox="0 0 156 56" fill="none" xmlns="http://www.w3.org/2000/svg">
<path d="M119.249 17.7462H116.586L116.602 37.5427H127.353V35.0905H119.249V17.7462Z" fill="#8C929D"/>
<path d="M137.6 34.0511C136.934 34.7494 135.814 35.4478 134.303 35.4478C132.273 35.4478 131.461 34.4571 131.461 33.1579C131.461 31.1929 132.826 30.251 135.716 30.251C136.252 30.251 137.129 30.3159 137.584 30.3971V34.0511H137.6ZM134.856 22.066C132.712 22.066 130.747 22.8293 129.204 24.096L130.146 25.72C131.234 25.0867 132.566 24.4533 134.466 24.4533C136.642 24.4533 137.616 25.5739 137.616 27.4415V28.4159C137.194 28.3184 136.317 28.2697 135.781 28.2697C131.12 28.2697 128.766 29.8937 128.766 33.3203C128.766 36.3734 130.633 37.9162 133.475 37.9162C135.392 37.9162 137.227 37.0393 137.86 35.6264L138.347 37.559H140.199V27.409C140.199 24.2097 138.802 22.066 134.856 22.066Z" fill="#8C929D"/>
<path d="M148.773 35.5452C147.783 35.5452 146.906 35.4315 146.24 35.123V25.9474C147.149 25.1841 148.27 24.6482 149.683 24.6482C152.249 24.6482 153.255 26.4671 153.255 29.3903C153.255 33.5802 151.648 35.5452 148.773 35.5452ZM149.894 22.066C147.523 22.066 146.24 23.69 146.24 23.69V21.1241L146.224 17.7462H143.625L143.641 37.0555C144.941 37.5914 146.727 37.9 148.66 37.9C153.613 37.9 156 34.7332 156 29.2603C156 24.9243 153.791 22.066 149.894 22.066Z" fill="#8C929D"/>
<path d="M90.3418 19.8899C92.6966 19.8899 94.2069 20.6694 95.2138 21.4651L96.3506 19.4839C94.7915 18.1197 92.6966 17.3727 90.4717 17.3727C84.8202 17.3727 80.8577 20.8156 80.8577 27.7663C80.8577 35.0417 85.1288 37.8837 90.017 37.8837C92.4692 37.8837 94.5479 37.3153 95.9121 36.7307L95.8634 28.9518V26.4995H88.6041V28.9518H93.2325L93.2812 34.8631C92.6804 35.1717 91.6248 35.399 90.1956 35.399C86.2656 35.399 83.6347 32.9306 83.6347 27.7175C83.6347 22.4558 86.363 19.8899 90.3418 19.8899Z" fill="#8C929D"/>
<path d="M109.05 17.7462H106.452L106.468 21.0754V32.5408C106.468 35.7401 107.865 37.8838 111.811 37.8838C112.363 37.8838 112.899 37.835 113.419 37.7376V35.399C113.045 35.464 112.639 35.4965 112.217 35.4965C110.041 35.4965 109.083 34.3759 109.083 32.5083V24.5995H113.403V22.4233H109.05V17.7462Z" fill="#8C929D"/>
<path d="M99.8585 37.5265H102.457V22.4233H99.8585V37.5265Z" fill="#8C929D"/>
<path d="M99.8585 20.3446H102.457V17.7462H99.8585V20.3446Z" fill="#8C929D"/>
<path d="M29.9943 55.2606L41.0375 21.2704H18.9512L29.9943 55.2606Z" fill="#E24329"/>
<path d="M29.9945 55.2606L18.9513 21.2704H3.47461L29.9945 55.2606Z" fill="#FC6D26"/>
<path d="M3.47436 21.2704L0.112685 31.599C-0.195874 32.5409 0.145165 33.5803 0.940923 34.1487L29.9942 55.2606L3.47436 21.2704Z" fill="#FCA326"/>
<path d="M3.47461 21.2703H18.9513L12.2929 0.791698C11.9519 -0.263899 10.4578 -0.263899 10.1168 0.791698L3.47461 21.2703Z" fill="#E24329"/>
<path d="M29.9941 55.2606L41.0373 21.2704H56.514L29.9941 55.2606Z" fill="#FC6D26"/>
<path d="M56.514 21.2704L59.8757 31.599C60.1842 32.5409 59.8432 33.5803 59.0474 34.1487L29.9941 55.2606L56.514 21.2704Z" fill="#FCA326"/>
<path d="M56.5142 21.2703H41.0375L47.6959 0.791698C48.0369 -0.263899 49.531 -0.263899 49.872 0.791698L56.5142 21.2703Z" fill="#E24329"/>
</svg>
