<svg width="224" height="70" viewBox="0 0 224 70" fill="none" xmlns="http://www.w3.org/2000/svg">
<path d="M49.1707 33.2628C49.1707 46.9387 38.332 58.0253 24.9614 58.0253C11.5912 58.0253 0.752441 46.9387 0.752441 33.2628C0.752441 19.5867 11.5912 8.50012 24.9614 8.50012C38.332 8.50012 49.1707 19.587 49.1707 33.2631" fill="#D33833"/>
<path d="M1.73907 39.3958C1.73907 39.3958 -0.0133031 13.5722 23.781 12.8347L22.1212 10.0679L9.20983 14.4022L5.52049 18.6449L2.29242 24.8241L0.447754 32.0178L1.00111 36.8134" fill="#EF3D3A"/>
<path d="M8.38004 16.3701C4.13247 20.7162 1.50402 26.7168 1.50402 33.3553C1.50402 39.9918 4.13247 45.9933 8.38004 50.3389C12.6298 54.6839 18.4863 57.3655 24.961 57.3655C31.436 57.3655 37.2929 54.6841 41.5425 50.3389C45.7896 45.9935 48.4185 39.9923 48.4185 33.3553C48.4185 26.7168 45.7894 20.7162 41.5425 16.3701C37.2929 12.0258 31.4362 9.3447 24.961 9.34404C18.4863 9.34448 12.6298 12.0258 8.38004 16.3701ZM7.3052 51.3899C2.79091 46.7733 0 40.3933 0 33.3553C0 26.3162 2.79091 19.9366 7.30475 15.3196C11.8179 10.7015 18.0651 7.83957 24.9608 7.84045C31.8565 7.83957 38.1044 10.7015 42.6167 15.3196C47.1314 19.9366 49.9228 26.3168 49.9219 33.3553C49.9225 40.3931 47.1314 46.7731 42.6167 51.3899C38.1044 56.0075 31.8565 58.8695 24.9608 58.8695C18.0653 58.8695 11.8179 56.0075 7.3052 51.3899Z" fill="#231F20"/>
<path d="M35.1523 33.4002L31.4629 33.9536L26.4827 34.5069L23.2549 34.599L20.1191 34.5069L17.7213 33.769L15.6002 31.4635L13.9401 26.7599L13.5711 25.7453L11.3577 25.0078L10.0666 22.8864L9.14429 19.843L10.1587 17.1683L12.5567 16.3382L14.4935 17.2608L15.4156 19.2896L16.5223 19.105L16.8913 18.6442L16.5223 16.5228L16.4302 13.8481L16.9836 10.1592L16.9621 8.05204L18.6437 5.36383L21.5948 3.24248L26.7594 1.02905L32.4776 1.85909L37.4578 5.45591L39.7633 9.14503L41.2392 11.8195L41.608 18.4598L40.5012 24.178L38.4724 29.2503L36.5357 31.925" fill="#F0D6B7"/>
<path d="M32.0166 49.355L18.8283 49.9084V52.1218L19.935 59.8688L19.3817 60.5145L10.159 57.3787L9.51353 56.272L8.5912 45.8505L6.47007 39.579L6.00879 38.1035L13.387 33.0314L15.6925 32.1089L17.7216 34.599L19.474 36.167L21.5028 36.8124L22.4251 37.0891L23.5318 41.8849L24.3619 42.8993L26.483 42.1616L25.0075 45.0207L33.0312 48.8019L32.0166 49.3553" fill="#335061"/>
<path d="M10.159 17.1682L12.5571 16.3381L14.4938 17.2607L15.4159 19.2895L16.5226 19.1049L16.7993 17.9982L16.246 15.8773L16.7993 10.8046L16.338 8.03777L17.9981 6.10102L21.5949 3.24216L20.5807 1.85876L15.508 4.34887L13.3871 6.00894L12.1881 8.59113L10.3436 11.0812L9.79028 14.0326L10.159 17.1682Z" fill="#6D6B6D"/>
<path d="M13.9397 8.49908C13.9397 8.49908 15.3231 5.08686 20.8567 3.42679C26.3903 1.76672 21.1334 2.22755 21.1334 2.22755L15.1385 4.53373L12.833 6.83901L11.8184 8.68368L13.9397 8.49908ZM11.1729 16.5228C11.1729 16.5228 9.23619 10.0669 16.614 9.14452L16.3373 8.0378L11.265 9.23704L9.78955 14.0327L10.1583 17.1682L11.1729 16.5228Z" fill="#DCD9D8"/>
<path d="M14.124 25.0997L15.3317 23.9296C15.3317 23.9296 15.8766 23.9929 15.9687 24.6384C16.0608 25.2843 16.3375 31.0945 20.3035 34.2303C20.6649 34.5165 17.3521 33.7688 17.3521 33.7688L14.4007 29.158M31.0944 23.3475C31.0944 23.3475 31.3095 20.5519 32.0626 20.7669C32.8153 20.9818 32.8153 21.7348 32.8153 21.7348C32.8153 21.7348 30.9868 22.9174 31.0944 23.3475ZM38.7489 13.1104C38.7489 13.1104 37.2282 13.4313 37.0888 14.7705C36.9487 16.1098 38.7489 15.0471 39.0256 14.9546M27.5894 13.2027C27.5894 13.2027 25.5606 13.4794 25.5606 14.7705C25.5606 16.0613 27.8661 15.9695 28.512 15.4161M15.0466 19.1973C15.0466 19.1973 11.5419 17.076 11.1731 19.1048C10.8039 21.1341 9.97387 22.6095 11.7265 24.7309L10.5272 24.3617L9.42051 21.5028L9.05176 18.736L11.1731 16.5224L13.5707 16.707L14.9541 17.8137L15.0466 19.1973ZM16.7067 13.3871C16.7067 13.3871 18.2742 5.27088 26.2058 3.70333C32.7361 2.41268 36.166 3.98001 37.4576 5.45548C37.4576 5.45548 31.6473 -1.46126 26.1137 0.659868C20.5802 2.78077 16.5221 6.65427 16.6142 9.14438C16.7713 13.3853 16.7067 13.3871 16.7067 13.3871ZM38.1032 6.3776C38.1032 6.3776 35.429 6.28552 35.3364 8.68354C35.3364 8.68354 35.3362 9.0523 35.521 9.42106C35.521 9.42106 37.6426 7.02325 38.9333 8.31434" fill="#F7E4CD"/>
<path d="M26.3918 9.67111C26.3918 9.67111 25.9314 5.9904 22.7937 8.13035C20.7644 9.51374 20.949 11.4505 21.3178 11.8192C21.687 12.1884 21.5865 12.9313 21.8674 12.4213C22.1478 11.9113 22.0555 10.2513 23.0704 9.79042C24.0845 9.32914 25.7477 8.81407 26.3918 9.67111Z" fill="#F7E4CD"/>
<path d="M17.7209 34.5988L9.05176 38.4723C9.05176 38.4723 12.6486 52.7675 10.8039 57.1944L9.51304 56.7335L9.42052 51.292L7.02294 40.9629L6.0083 38.1036L15.0466 32.0168L17.7209 34.5988ZM18.6124 42.5056L19.8422 44.0059V49.5394H18.3668C18.3668 49.5394 18.1822 45.6659 18.1822 45.2049C18.1822 44.7438 18.3668 43.0838 18.3668 43.0838M18.6434 50.3699L14.4933 50.5541L15.692 51.3841L18.6434 51.8452" fill="#49728B"/>
<path d="M32.8464 49.4474L36.2591 49.3551L37.0891 57.8398L33.5844 58.3009L32.8464 49.4474Z" fill="#335061"/>
<path d="M33.7686 49.4476L38.9329 49.1709C38.9329 49.1709 41.0543 43.8217 41.0543 43.545C41.0543 43.2683 42.8989 35.798 42.8989 35.798L38.7488 31.4637L37.9187 30.726L35.7053 32.9394V41.5164L33.7686 49.4476Z" fill="#335061"/>
<path d="M36.0743 48.8019L32.8462 49.4476L33.3075 52.0302C34.5063 52.5835 36.5355 51.1076 36.5355 51.1076M36.1666 32.6627L42.6227 37.4585L42.8068 35.2451L37.9191 30.726L36.1666 32.6627Z" fill="#49728B"/>
<path d="M21.8441 67.617L19.9348 59.8684L18.9853 54.1516L18.8281 49.908L27.47 49.448L32.8464 49.4471L32.3579 59.1318L33.188 66.6021L33.0954 67.9855L26.0866 68.5388L21.8441 67.617Z" fill="white"/>
<path d="M31.6474 49.3552C31.6474 49.3552 31.1861 58.9467 32.5695 65.7716C32.5695 65.7716 29.8027 67.5242 25.7446 67.985L33.4918 67.7083L34.4142 67.155L33.3075 52.0302L33.0308 48.8019" fill="#DCD9D8"/>
<path d="M37.2457 57.1033L40.8426 56.0887L47.6672 55.7199L48.6819 52.5839L46.8372 47.1429L44.7163 46.8662L41.7649 47.7883L38.9333 49.1708L37.4301 48.895L36.2585 49.3552" fill="white"/>
<path d="M37.181 55.2577C37.181 55.2577 39.5786 54.1512 39.9478 54.2435L38.9332 49.1708L40.1322 48.71C40.1322 48.71 40.9622 53.5056 40.9622 54.0589C40.9622 54.0589 46.1268 54.3356 46.5881 54.3356C46.5881 54.3356 47.6948 52.2145 47.4181 50.0011L48.4325 52.9522L48.5248 54.6123L47.0492 56.8257L45.3891 57.1947L42.6223 57.1024L41.7 55.9036L38.4723 56.3644L37.4577 56.7336" fill="#DCD9D8"/>
<path d="M33.5567 48.7106L31.5278 43.5462L29.4065 40.5027C29.4065 40.5027 29.8676 39.2114 30.5132 39.2114H32.6346L34.6634 39.9494L34.4792 43.3616L33.5567 48.7106Z" fill="white"/>
<path d="M33.953 46.9572C33.953 46.9572 31.3709 41.9772 31.3709 41.2395C31.3709 41.2395 31.8319 40.1328 32.4776 40.4095C33.123 40.6861 34.5064 41.4237 34.5064 41.4237V39.6715L31.3709 39.0256L29.2495 39.3023L32.8463 47.7873L33.5843 47.8798" fill="#DCD9D8"/>
<path d="M22.6739 34.7845L20.119 34.5068L17.7209 33.7688V34.5988L18.8927 35.891L22.5819 37.5511" fill="white"/>
<path d="M18.5518 35.061C18.5518 35.061 21.4107 36.26 22.3332 35.9834L22.4247 37.089L19.8429 36.5367L18.2751 35.43L18.5518 35.061Z" fill="#DCD9D8"/>
<path d="M37.2358 39.5253C35.6709 39.4792 34.2572 39.2933 33.0192 38.9442C33.1033 38.4367 32.9457 37.9387 33.0723 37.573C33.4172 37.3245 33.9957 37.3284 34.517 37.2702C34.0659 37.0484 33.4326 36.961 32.912 37.0887C32.8997 36.7366 32.7416 36.5183 32.646 36.2428C33.5258 35.9284 35.6029 33.87 36.7714 34.5517C37.3281 34.876 37.5647 36.7279 37.6078 37.6284C37.6439 38.3758 37.5401 39.1295 37.2358 39.5253Z" fill="#D33833"/>
<path d="M37.2358 39.5253C35.6709 39.4792 34.2572 39.2933 33.0192 38.9442C33.1033 38.4367 32.9457 37.9387 33.0723 37.573C33.4172 37.3245 33.9957 37.3284 34.517 37.2702C34.0659 37.0484 33.4326 36.961 32.912 37.0887C32.8997 36.7366 32.7416 36.5183 32.646 36.2428C33.5258 35.9284 35.6029 33.87 36.7714 34.5517C37.3281 34.876 37.5647 36.7279 37.6078 37.6284C37.6439 38.3758 37.5401 39.1295 37.2358 39.5253Z" stroke="#D33833" stroke-width="6.14065"/>
<path d="M29.7527 36.967C29.7485 37.0854 29.7434 37.2047 29.7387 37.3243C29.2502 37.6452 28.4616 37.6412 27.9251 37.911C28.7157 37.9456 29.3379 38.1359 29.8762 38.4044L29.8414 39.2991C28.9459 39.9122 28.1278 40.8252 27.0733 41.4003C26.5746 41.6723 24.8247 42.372 24.2944 42.2482C23.9945 42.1785 23.9672 41.8062 23.8473 41.4549C23.5916 40.7035 23.0031 39.5071 22.9515 38.375C22.8864 36.9458 22.7419 34.5506 24.2822 34.845C25.5248 35.0818 26.9704 35.6544 27.9324 36.1801C28.5205 36.5011 28.8607 36.8984 29.7527 36.967Z" fill="#D33833"/>
<path d="M29.7527 36.967C29.7485 37.0854 29.7434 37.2047 29.7387 37.3243C29.2502 37.6452 28.4616 37.6412 27.9251 37.911C28.7157 37.9456 29.3379 38.1359 29.8762 38.4044L29.8414 39.2991C28.9459 39.9122 28.1278 40.8252 27.0733 41.4003C26.5746 41.6723 24.8247 42.372 24.2944 42.2482C23.9945 42.1785 23.9672 41.8062 23.8473 41.4549C23.5916 40.7035 23.0031 39.5071 22.9515 38.375C22.8864 36.9458 22.7419 34.5506 24.2822 34.845C25.5248 35.0818 26.9704 35.6544 27.9324 36.1801C28.5205 36.5011 28.8607 36.8984 29.7527 36.967Z" stroke="#D33833" stroke-width="6.14065"/>
<path d="M30.6423 38.6725C30.505 37.8941 30.3472 37.6718 30.4083 36.9923C32.4852 35.608 32.8749 39.3706 30.642 38.6725" fill="#D33833"/>
<path d="M30.6423 38.6725C30.505 37.8941 30.3472 37.6718 30.4083 36.9923C32.4852 35.608 32.8749 39.3706 30.642 38.6725H30.6423Z" stroke="#D33833" stroke-width="6.14065"/>
<path d="M33.6488 39.3036C33.6488 39.3036 33.0031 38.3813 33.4646 38.1046C33.9255 37.8279 34.387 38.1048 34.6637 37.6435C34.9403 37.1827 34.6637 36.906 34.7557 36.3526C34.8483 35.7993 35.3098 35.7068 35.7704 35.6147C36.2314 35.5226 37.523 35.338 37.7071 35.7993L37.1538 34.1392L36.0471 33.77L32.5423 35.7993L32.3582 36.8135V38.8428M23.9651 42.3471C23.8542 40.9079 23.7371 39.4705 23.6065 38.0326C23.4115 35.8856 24.1222 36.2601 25.9835 36.2601C26.2677 36.2601 27.7336 36.5992 27.8386 36.8135C28.3417 37.841 26.9975 37.6125 28.4182 38.3872C29.617 39.0411 31.7357 37.9904 31.2512 36.5368C30.9801 36.2136 29.8384 36.4361 29.4293 36.2243L27.2679 35.1036C26.3511 34.6277 24.2327 33.9349 23.255 34.5994C20.7788 36.2838 23.4115 40.4915 24.2949 42.2483" fill="#EF3D3A"/>
<path d="M26.3918 9.67099C23.8782 9.08554 22.6292 10.723 21.8673 12.4212C21.1869 12.2563 21.4578 11.3311 21.6296 10.8596C22.0796 9.62229 23.8928 7.97528 25.3743 8.19862C26.0117 8.29446 26.8745 8.87747 26.3918 9.67099ZM38.6396 12.5336L38.7589 12.538C39.3268 13.7182 39.8184 14.9684 40.5347 16.01C40.0551 17.128 36.9 18.1174 36.9485 16.1098C37.6307 15.8117 38.8085 16.049 39.4134 15.668C39.0639 14.7083 38.5592 13.8911 38.6396 12.5336ZM27.6789 12.5642C28.2179 13.5522 28.3934 14.5903 29.1595 15.3371C29.5045 15.6734 30.1754 16.0831 29.8427 17.018C29.7651 17.2385 29.1971 17.7301 28.8688 17.8266C27.6711 18.1801 24.8802 17.8996 25.8254 16.4062C26.8163 16.4525 28.1473 17.0494 28.8877 16.3307C28.3195 15.4217 27.3059 13.6237 27.6789 12.5642ZM38.1898 22.606C36.3865 23.7648 34.3756 25.0242 31.4207 24.732C30.7892 24.1831 30.5486 22.9615 31.1619 22.1547C31.4813 22.7037 31.2806 23.7132 32.1704 23.8653C33.8471 24.1521 35.7986 22.8396 37.005 22.3805C37.7524 21.1197 36.9401 20.656 36.2666 19.8446C34.8876 18.1818 33.0372 16.1211 33.1042 13.6321C33.662 13.228 33.7098 14.2492 33.7899 14.4352C34.5102 16.1205 36.3226 18.2764 37.6455 19.7188C37.9702 20.0741 38.505 20.415 38.5645 20.6498C38.7361 21.3333 38.1181 22.1516 38.1898 22.606ZM14.4154 21.3864C13.8503 21.0637 13.7155 19.6427 13.0519 19.6024C12.1039 19.5446 12.2768 21.4455 12.2803 22.5573C11.6278 21.965 11.5129 20.1401 11.9923 19.2031C11.4456 18.9348 11.2015 19.4993 10.8987 19.698C11.2882 16.8677 15.0389 18.3855 14.4154 21.3864ZM39.3381 23.7847C38.4988 25.3826 37.3113 27.1422 34.848 27.1934C34.7979 26.6774 34.7594 25.8921 34.8506 25.5811C36.7338 25.4005 37.8963 24.4421 39.3381 23.7847ZM27.537 24.8206C29.1079 25.6471 31.9953 25.7356 34.1308 25.673C34.2453 26.1409 34.2426 26.7188 34.247 27.2894C31.5019 27.4262 28.2566 26.7471 27.537 24.8206ZM27.2382 26.3611C28.3248 29.0889 32.0588 28.7749 35.2076 28.6996C35.0691 29.0538 34.7685 29.4721 34.3951 29.6235C33.3858 30.0341 30.6028 30.3455 29.2017 29.6014C28.3133 29.1292 27.7429 28.0621 27.2559 27.4366C27.0211 27.1345 25.8504 26.3629 27.2382 26.3611Z" fill="#231F20"/>
<path d="M38.0589 41.4075C36.784 43.591 35.5644 45.8339 34.0515 47.76C34.6857 45.8952 34.957 42.7747 35.0529 40.3955C36.3796 39.7748 37.5155 40.5354 38.0589 41.4075Z" fill="#81B0C4"/>
<path d="M44.9191 49.2557C43.4917 49.5415 42.4888 50.9289 41.0963 50.8397C41.8615 49.7608 43.2026 49.306 44.9191 49.2557ZM45.5488 51.4895C44.3855 51.6128 43.0189 51.801 41.8389 51.7038C42.3974 50.8505 44.5497 51.1449 45.5488 51.4895ZM45.9519 53.4157C44.6444 53.444 43.0191 53.4179 41.7767 53.3138C42.5116 52.5241 45.1039 53.0206 45.9519 53.4157Z" fill="#231F20"/>
<path d="M35.5985 58.6861C35.7858 60.3283 36.4367 61.9921 36.3555 63.7905C35.6326 64.0342 35.2171 64.2476 34.2483 64.2465C34.1799 62.7179 33.9754 60.3814 34.0367 58.9243C34.5133 58.9559 35.2158 58.5841 35.5985 58.6861Z" fill="#DCD9D8"/>
<path d="M33.4904 34.4845C32.8339 34.913 32.2748 35.4484 31.6442 35.9059C30.2458 35.9752 29.4828 35.8092 28.4556 35.0062C28.4724 34.942 28.5755 34.9708 28.5795 34.8915C30.0762 35.5582 31.9791 34.6193 33.4904 34.4843" fill="#F0D6B7"/>
<path d="M25.6328 44.6877C26.0441 42.9059 27.6554 41.9829 29.1187 41.0012C30.6292 42.918 31.5478 45.3834 32.5593 47.7621C30.1692 47.0417 27.7274 45.8728 25.6328 44.6877Z" fill="#81B0C4"/>
<path d="M34.0367 58.9242C33.9756 60.3813 34.1799 62.7178 34.2483 64.2464C35.2173 64.2478 35.6324 64.0346 36.3555 63.7905C36.4372 61.9921 35.786 60.3282 35.5985 58.6861C35.2156 58.584 34.5133 58.9559 34.0367 58.9242ZM18.954 50.638C19.5928 56.5101 20.5178 61.446 22.2143 66.6458C25.9807 67.7892 30.5205 67.8888 33.8492 66.8572C33.2383 63.9224 33.505 60.3495 33.148 57.2175C32.8786 54.8635 33.0161 52.4951 32.6469 50.0935C28.6134 49.2547 22.9122 49.8977 18.954 50.638ZM33.6002 50.131C33.5664 52.6525 33.7131 55.1399 33.9057 57.665C34.8743 57.5198 35.5314 57.4227 36.4308 57.2254C36.1388 54.7946 36.1747 52.0593 35.5795 49.9089C34.892 49.9154 34.2862 49.901 33.6004 50.131H33.6002ZM38.5129 49.7241C38.0532 49.619 37.5182 49.7199 37.0791 49.7285C37.2856 51.7844 37.7863 54.0531 37.9624 56.2108C38.6535 56.2323 39.0225 55.9064 39.5909 55.7969C39.6212 53.9026 39.4249 51.293 38.5129 49.7241ZM45.9511 56.5202C47.3912 56.1707 48.2965 54.4069 47.8939 52.5952C47.6236 51.3778 47.1422 49.0856 46.6269 48.3066C46.2462 47.7312 45.2141 46.9768 44.3898 47.5043C43.0489 48.3631 40.6867 48.6121 39.7093 49.6513C40.1996 51.2837 40.3516 53.5259 40.5539 55.5944C42.2288 55.699 44.2895 55.1335 45.6827 55.7338C44.7101 56.0485 43.4482 56.051 42.6082 56.5101C43.295 56.8416 44.9026 56.7748 45.9511 56.5202ZM32.559 47.7621C31.5475 45.3834 30.6287 42.9181 29.1185 41.0012C27.6552 41.9829 26.0438 42.9057 25.6325 44.6877C27.7271 45.8728 30.169 47.0417 32.559 47.7621ZM35.0524 40.3959C34.9566 42.7748 34.6852 45.8956 34.0511 47.7599C35.5637 45.8342 36.7836 43.5914 38.0585 41.4078C37.5151 40.5353 36.3792 39.7748 35.0524 40.3956V40.3959ZM32.2259 39.3914C31.6528 39.3294 31.1666 40.0501 30.4211 39.7385C30.2506 39.9273 30.0955 40.1318 29.9215 40.3162C31.5672 42.2994 32.3149 45.1131 33.5861 47.4441C34.268 45.2052 34.1894 42.7525 34.3397 40.3089C33.4026 40.368 32.8826 39.4611 32.2259 39.3914ZM30.4085 36.9925C30.3471 37.6718 30.5052 37.8942 30.6422 38.6727C32.8747 39.3706 32.4849 35.608 30.4085 36.9927V36.9925ZM27.9323 36.1797C26.9703 35.654 25.5247 35.0812 24.2821 34.8444C22.7418 34.5495 22.8863 36.9456 22.9516 38.3746C23.003 39.5065 23.5913 40.7031 23.8472 41.4545C23.9674 41.8056 23.9942 42.1781 24.2943 42.2478C24.8246 42.3713 26.5744 41.6717 27.0733 41.3996C28.1277 40.8248 28.9458 39.9118 29.8414 39.2987C29.8531 39.0003 29.8644 38.7021 29.8763 38.4038C29.3378 38.1359 28.7156 37.9451 27.9252 37.9106C28.4613 37.6406 29.2502 37.6446 29.7389 37.3236C29.7433 37.2041 29.7484 37.0852 29.7526 36.9666C28.8604 36.8984 28.5204 36.5011 27.9323 36.1797ZM18.743 34.5101C17.9444 35.3209 20.9824 36.4256 21.9501 36.4854C21.9445 35.9721 22.2422 35.4889 22.1825 35.1208C21.0333 34.9192 19.5237 35.0522 18.743 34.5101ZM28.5795 34.8908C28.5755 34.9701 28.4724 34.9413 28.4555 35.0059C29.4828 35.8087 30.246 35.9748 31.6442 35.9055C32.2748 35.448 32.8339 34.9128 33.4904 34.484C31.9789 34.619 30.0762 35.558 28.5795 34.8908ZM37.6081 37.6288C37.5649 36.728 37.3283 34.8762 36.7716 34.5522C35.6031 33.8698 33.5263 35.9289 32.6465 36.2432C32.7421 36.5186 32.9001 36.7368 32.9121 37.0892C33.4327 36.9613 34.0664 37.0487 34.5172 37.2707C33.996 37.3289 33.4174 37.3252 33.0725 37.5733C32.9459 37.9387 33.1035 38.4368 33.0194 38.9445C34.2572 39.2938 35.6711 39.4797 37.236 39.5255C37.5401 39.1293 37.6439 38.3757 37.6079 37.6286L37.6081 37.6288ZM17.3988 35.2943C17.1483 35.1155 15.4519 32.9085 15.2197 33.0001C12.1503 34.2107 9.2804 36.3039 6.71548 38.2834C9.16088 43.5303 10.1481 49.9585 10.3223 56.1541C13.1234 57.4645 15.5838 59.3532 19.3849 59.5502C18.9449 56.4381 18.5432 53.6616 18.2937 50.7317C17.3386 50.3288 15.9685 50.7498 15.0747 50.6066C15.0674 49.5298 16.44 50.1347 16.5542 49.4107C16.6403 48.8629 15.7987 48.8215 16.0727 47.9587C16.7717 48.2128 17.1385 48.7735 17.8836 48.9844C18.5646 47.4948 17.8743 44.859 17.9721 43.614C17.9907 43.3802 18.089 42.3191 18.6124 42.505C19.0759 42.6697 18.5861 45.3278 18.6368 46.5062C18.683 47.5919 18.5055 48.6422 18.9453 49.3239C22.6185 48.8237 26.3508 48.5005 30.325 48.3916C29.4507 48.0165 28.4122 47.6617 27.2734 47.0198C26.6558 46.6718 24.7098 45.9476 24.5316 45.3612C24.2476 44.427 25.2773 43.9291 25.4535 43.1281C23.5995 44.1396 23.2376 42.1591 22.7991 40.7562C22.4018 39.4855 22.1754 38.5361 22.078 37.8033C20.481 37.0418 18.7734 36.2707 17.3988 35.2943ZM35.9858 33.2671C38.5432 32.0271 39.0041 37.9018 38.0016 39.7942C38.1566 40.3587 38.6896 40.5747 38.9069 41.0822C37.4799 43.6387 35.8949 46.0253 34.4387 48.5515C35.5219 47.877 37.0691 48.4308 38.3438 47.9264C38.8097 47.742 39.1468 46.6756 39.4997 45.8223C40.47 43.4745 41.4884 40.5149 41.942 38.2745C42.0442 37.7643 42.3231 36.6521 42.2607 36.1976C42.1491 35.3842 41.0455 34.7811 40.4842 34.2782C39.4499 33.349 38.7987 32.5318 37.7196 31.663C37.2825 32.3082 36.3435 32.742 35.9858 33.2671ZM11.5501 10.5885C10.3311 11.929 10.5863 14.4416 10.734 16.229C12.9368 14.8429 15.86 16.3381 15.8324 18.6952C16.884 18.6671 16.2253 17.3815 16.0351 16.5535C15.4136 13.8487 17.0825 10.9101 16.1108 8.43661C14.2243 8.57982 12.6745 9.35032 11.5501 10.5885ZM20.2692 2.80676C17.5108 3.58854 13.9751 5.59302 12.8416 8.0714C13.7194 7.94368 14.3286 7.501 15.1945 7.44633C15.522 7.42508 15.9506 7.58334 16.3266 7.48993C17.0761 7.304 17.7085 5.62357 18.274 4.99828C18.8251 4.38759 19.4878 4.12663 19.9414 3.56995C20.2324 3.4294 20.6632 3.43936 20.6798 3.00176C20.5534 2.86675 20.4204 2.76382 20.2692 2.80676ZM34.6297 3.54206C31.7664 1.92692 26.9197 0.711752 23.874 2.22972C21.4164 3.45552 18.0943 5.4828 16.9614 8.05192C18.0195 10.5316 16.648 12.8033 16.5606 15.3204C16.5141 16.6595 17.1912 17.8289 17.243 19.2868C16.8806 19.8845 15.7748 19.9579 15.009 19.917C14.7513 18.6272 14.3002 17.1774 12.9717 17.0318C11.0923 16.8262 9.71844 18.3818 9.63278 20.0073C9.53163 21.9188 11.1009 25.0871 13.3252 24.8673C14.184 24.7823 14.3956 23.9211 15.3315 23.9299C15.8388 24.9424 14.5488 25.2602 14.416 25.9842C14.3815 26.1713 14.5231 26.9024 14.6052 27.2452C15.0092 28.9141 15.9098 31.0744 16.7963 32.3454C17.9212 33.9577 20.132 34.2002 22.5101 34.3583C22.9346 33.4433 24.4993 33.5187 25.5188 33.7582C24.297 33.2742 23.161 32.101 22.2197 31.0627C21.1384 29.8715 20.0432 28.5934 19.9879 27.0363C22.0313 29.871 23.7197 32.3472 27.4352 33.5938C30.2469 34.5369 33.5305 33.1617 35.6904 31.6446C36.5868 31.014 37.122 30.0135 37.759 29.0979C40.1429 25.6684 41.2556 20.7732 41.0112 16.0291C40.9105 14.0722 40.9147 12.1224 40.2584 10.8061C39.5723 9.42934 37.2515 8.19801 35.8929 9.44306C35.6412 8.1046 37.0226 7.27634 38.6453 7.75842C37.4885 6.26436 36.2743 4.47015 34.6297 3.54206ZM39.9643 47.6909C42.2018 46.5786 46.3823 44.697 47.7852 47.6951C48.3029 48.8002 48.9101 50.6682 49.1783 51.8092C49.5568 53.4183 48.7677 56.8013 47.1132 57.3414C45.6523 57.8184 43.9473 57.7896 42.1874 57.4357C41.9803 57.2633 41.7494 56.9629 41.588 56.6497C40.3315 56.601 39.1546 56.7175 38.1619 57.2338C38.2559 58.163 37.6273 58.3122 37.0381 58.5037C36.6012 60.2359 37.9122 62.4985 37.5983 64.078C37.3746 65.2033 35.9901 65.3773 34.9723 65.5878C34.9391 66.2131 35.017 66.7352 35.0863 67.2642C34.8539 68.1217 33.8101 68.6098 32.8209 68.7293C29.5678 69.12 24.6276 69.2959 21.4985 68.1704C20.6253 66.0282 19.9372 63.4226 19.2098 60.9772C16.1577 61.3032 13.6891 59.6602 11.3621 58.584C10.5564 58.2104 9.44154 58.0046 9.14096 57.3633C8.84901 56.742 8.96831 55.5523 8.89593 54.4279C8.71177 51.5571 8.55396 48.7876 7.79586 45.848C7.45543 44.5288 6.86179 43.3645 6.44788 42.0936C6.0654 40.9156 5.39717 39.4596 5.22253 38.2849C4.96422 36.5438 6.60348 36.4469 7.65176 35.6923C9.27266 34.5258 10.5447 33.8804 12.2997 32.8275C12.8197 32.5154 14.387 31.7263 14.5654 31.3626C14.9198 30.6419 13.9569 29.6258 13.6995 29.0607C13.2922 28.1673 13.08 27.4083 13.0215 26.5265C11.5492 26.2941 10.4332 25.4176 9.75895 24.4297C8.6436 22.7947 7.87001 19.7694 8.83506 17.4681C8.91076 17.287 9.28837 16.9306 9.34415 16.6524C9.45371 16.1044 9.13719 15.3753 9.11772 14.7925C9.01634 11.8017 9.62371 9.22482 11.637 8.32262C12.4545 5.06623 15.3799 3.98364 18.1363 2.3654C19.1667 1.76047 20.3024 1.37401 21.4755 0.942391C25.6832 -0.606123 32.1389 -0.314614 35.6313 2.32667C37.112 3.44666 39.4789 5.81149 40.3255 7.52358C42.5617 12.0434 42.4028 19.5978 40.839 25.096C40.6287 25.8344 40.3237 26.9194 39.8979 27.8063C39.601 28.4254 38.6783 29.6645 38.7903 30.2112C38.9056 30.7763 40.8943 32.2863 41.3204 32.6973C42.0885 33.4379 43.5471 34.4211 43.6651 35.3559C43.7922 36.3504 43.2269 37.711 42.9402 38.6712C41.9838 41.8744 41.0497 44.8353 39.9643 47.6909Z" fill="#231F20"/>
<path d="M25.0368 25.5183C25.1581 25.3567 25.8255 25.1115 26.7593 25.561C26.7593 25.561 25.6526 25.7452 25.7449 27.5907L25.2838 27.4982C25.2836 27.4982 24.8068 25.8253 25.0368 25.5183Z" fill="#F7E4CD"/>
<path d="M33.1231 41.3779C33.1231 41.5124 33.0697 41.6414 32.9746 41.7365C32.8795 41.8316 32.7505 41.885 32.616 41.885C32.4815 41.885 32.3525 41.8316 32.2574 41.7365C32.1623 41.6414 32.1089 41.5124 32.1089 41.3779C32.1089 41.2435 32.1623 41.1145 32.2574 41.0194C32.3525 40.9243 32.4815 40.8708 32.616 40.8708C32.7505 40.8708 32.8795 40.9243 32.9746 41.0194C33.0697 41.1145 33.1231 41.2435 33.1231 41.3779ZM33.6304 43.7297C33.6303 43.8643 33.5768 43.9933 33.4816 44.0885C33.3864 44.1836 33.2573 44.237 33.1227 44.2369C32.9882 44.2369 32.8591 44.1833 32.764 44.0881C32.6689 43.9929 32.6155 43.8638 32.6155 43.7293C32.6156 43.5947 32.6691 43.4657 32.7643 43.3706C32.8595 43.2755 32.9885 43.2221 33.1231 43.2222C33.2576 43.2222 33.3866 43.2757 33.4817 43.3709C33.5768 43.4661 33.6302 43.5952 33.6302 43.7297" fill="#1D1919"/>
<path d="M86.791 23.0978C86.2724 23.1628 85.8313 23.2275 85.4683 23.2925C85.0565 23.3682 84.6477 23.459 84.2427 23.5648C83.7106 23.7076 83.3701 23.961 83.2214 24.324C83.0722 24.6877 82.9976 25.1029 82.9976 25.5702V40.7941C82.9976 42.1961 82.7154 43.481 82.1512 44.649C81.587 45.8171 80.8119 46.7969 79.8264 47.5885C78.8277 48.3676 77.7124 48.9548 76.4804 49.3503C75.248 49.7461 73.9319 49.9442 72.5314 49.9442C70.106 49.9442 68.1511 49.3608 66.6658 48.1934C65.1806 47.026 64.4385 45.4246 64.4385 43.3883C64.4385 42.1822 64.7789 41.1837 65.4598 40.3924C66.1406 39.6013 67.0775 39.2058 68.2708 39.2058C69.399 39.2058 70.2968 39.5365 70.965 40.1978C71.633 40.8596 71.9668 41.6764 71.9668 42.649C71.9668 43.4792 71.6779 44.2473 71.1013 44.9543C70.5241 45.6612 69.8658 46.3131 69.1265 46.9094V47.1622C69.2436 47.4218 69.497 47.6422 69.8875 47.8237C70.2771 48.0055 70.6739 48.096 71.0774 48.096C72.6379 48.096 73.8635 47.538 74.7544 46.4218C75.6453 45.3058 76.0911 43.6182 76.0911 41.3597V25.7649C76.0911 25.2977 76.0194 24.9084 75.8759 24.5969C75.732 24.2855 75.3868 24.0126 74.84 23.7793C74.4489 23.6104 73.9768 23.4676 73.4228 23.351C72.869 23.2341 72.4093 23.1498 72.0447 23.0978V21.5805H86.7908V23.0978H86.791ZM109.863 44.5361C109.409 45.2754 108.862 45.9727 108.22 46.6278C107.578 47.2826 106.848 47.8437 106.031 48.3105C105.162 48.8034 104.283 49.1759 103.395 49.4289C102.506 49.6819 101.485 49.8083 100.331 49.8083C98.411 49.8083 96.7539 49.5361 95.3603 48.9913C93.966 48.4466 92.8148 47.7142 91.9071 46.7932C90.9994 45.8724 90.3216 44.7863 89.8743 43.5346C89.427 42.2833 89.2032 40.9249 89.2032 39.4592C89.2032 38.1365 89.4464 36.8688 89.9327 35.6559C90.4119 34.4547 91.115 33.3556 92.0045 32.417C92.8866 31.4962 93.9988 30.7503 95.341 30.1796C96.6835 29.6092 98.1844 29.3237 99.8445 29.3237C101.66 29.3237 103.152 29.5444 104.319 29.9851C105.486 30.4262 106.452 31.0358 107.218 31.8138C107.957 32.5531 108.495 33.4252 108.832 34.4301C109.17 35.4354 109.338 36.4892 109.338 37.5915V38.856H96.1872C96.1872 41.5148 96.6996 43.5383 97.7242 44.9257C98.7488 46.3135 100.377 47.0072 102.607 47.0072C103.826 47.0072 104.922 46.6736 105.895 46.0054C106.868 45.3374 107.698 44.4914 108.385 43.4666L109.863 44.5361ZM102.432 37.1437C102.432 36.3657 102.393 35.5678 102.315 34.751C102.238 33.9343 102.101 33.2658 101.906 32.7472C101.686 32.1376 101.384 31.6772 101.002 31.366C100.619 31.0548 100.136 30.899 99.5525 30.899C98.554 30.899 97.7563 31.4048 97.1598 32.4163C96.5633 33.4278 96.239 35.0299 96.187 37.2214L102.432 37.1437ZM137.41 49.1854H125.718V47.7653C125.965 47.7396 126.263 47.7069 126.613 47.6679C126.963 47.629 127.229 47.5646 127.411 47.4734C127.683 47.331 127.878 47.1232 127.994 46.8509C128.111 46.5787 128.169 46.1767 128.169 45.6448V36.5406C128.169 35.2176 127.925 34.2225 127.438 33.5542C126.95 32.8864 126.231 32.5524 125.282 32.5524C124.762 32.5524 124.278 32.6301 123.829 32.7859C123.38 32.9415 122.941 33.1686 122.512 33.4668C122.135 33.7264 121.832 33.992 121.605 34.2645C121.407 34.4996 121.215 34.7397 121.029 34.9845V45.431C121.029 45.885 121.094 46.2646 121.224 46.569C121.353 46.874 121.567 47.1042 121.866 47.2595C122.073 47.3764 122.333 47.4804 122.644 47.5708C122.955 47.6619 123.26 47.7264 123.558 47.7655V49.1854H111.73V47.7653C112.059 47.7391 112.386 47.7034 112.713 47.6582C113.043 47.6128 113.326 47.5513 113.559 47.4734C113.974 47.331 114.259 47.1104 114.415 46.812C114.571 46.5138 114.649 46.1247 114.649 45.6446V34.3221C114.649 33.9203 114.545 33.5246 114.337 33.1357C114.13 32.7465 113.858 32.4289 113.521 32.1823C113.287 32.0267 112.992 31.8972 112.635 31.7932C112.278 31.6896 111.886 31.6184 111.458 31.5794V30.1593L120.738 29.6535L121.03 29.9454V32.766H121.108C121.547 32.375 121.988 31.9859 122.43 31.5989C122.949 31.1451 123.429 30.7755 123.87 30.49C124.349 30.1785 124.979 29.9129 125.757 29.6922C126.535 29.4718 127.365 29.3615 128.247 29.3615C130.361 29.3615 131.946 29.9616 133.003 31.1611C134.06 32.3607 134.589 33.9529 134.589 35.9372V45.4698C134.589 45.9499 134.66 46.3326 134.802 46.6174C134.945 46.903 135.211 47.1298 135.6 47.2983C135.807 47.3895 136.064 47.4802 136.368 47.5705C136.673 47.6617 137.02 47.7261 137.409 47.7653V49.1852L137.41 49.1854ZM164.179 49.1854H155.009C153.882 47.2066 152.852 45.5278 151.919 44.1503C151.049 42.865 150.168 41.5874 149.275 40.3178L148.129 41.2873V45.5282C148.129 45.9952 148.197 46.3777 148.333 46.6759C148.469 46.9742 148.732 47.1949 149.121 47.3372C149.355 47.4413 149.627 47.532 149.939 47.6095C150.25 47.687 150.561 47.7396 150.872 47.7651V49.1852H138.791V47.7651C139.119 47.7392 139.445 47.7035 139.77 47.658C140.097 47.6126 140.384 47.5508 140.632 47.4731C141.05 47.3306 141.334 47.1101 141.484 46.8115C141.635 46.5136 141.709 46.1243 141.709 45.6444V23.9533C141.709 23.5252 141.615 23.0812 141.427 22.6208C141.239 22.1606 140.963 21.8135 140.601 21.58C140.354 21.4244 139.985 21.2949 139.492 21.1909C138.999 21.0871 138.551 21.0225 138.149 20.9963V19.5762L147.837 19.0704L148.129 19.3816V39.4574C149.087 38.6013 150.166 37.6092 151.364 36.481C152.562 35.3531 153.524 34.4192 154.249 33.6799C154.677 33.2392 154.914 32.9052 154.959 32.6784C155.004 32.4515 155.027 32.312 155.027 32.26C155.027 32.0265 154.822 31.832 154.413 31.6766C154.003 31.521 153.387 31.3844 152.564 31.2678V29.8866H162.447V31.229C161.152 31.5925 160.165 31.9329 159.485 32.2503C158.806 32.5681 158.064 32.9929 157.261 33.5243C156.733 33.8724 156.219 34.2397 155.718 34.6253C155.22 35.0091 154.648 35.4872 154.001 36.0596C155.27 37.9007 156.442 39.6046 157.516 41.1733C158.591 42.7419 159.717 44.4009 160.895 46.1508C161.297 46.7602 161.795 47.1686 162.391 47.3758C162.987 47.5836 163.583 47.7133 164.179 47.7649L164.179 49.1854ZM176.688 49.1854H164.393V47.7653C164.73 47.7396 165.061 47.7069 165.385 47.6679C165.709 47.629 165.988 47.5646 166.221 47.4734C166.636 47.318 166.928 47.0942 167.097 46.8023C167.265 46.5103 167.35 46.1249 167.35 45.6446V34.3221C167.35 33.8683 167.246 33.4694 167.038 33.1257C166.831 32.7826 166.571 32.5066 166.26 32.299C166.027 32.1436 165.673 31.9944 165.2 31.8519C164.726 31.7091 164.295 31.6181 163.906 31.5796V30.1593L173.439 29.6535L173.731 29.9454V45.3919C173.731 45.8456 173.828 46.2314 174.022 46.5495C174.217 46.8673 174.496 47.1039 174.859 47.2593C175.118 47.3762 175.404 47.4802 175.715 47.5705C176.026 47.6617 176.35 47.7261 176.688 47.7653V49.1854ZM173.847 22.6507C173.847 23.6365 173.468 24.4761 172.709 25.1698C171.95 25.8637 171.052 26.2107 170.015 26.2107C168.964 26.2107 168.06 25.8637 167.301 25.1698C166.542 24.4761 166.163 23.6361 166.163 22.6507C166.163 21.665 166.542 20.8221 167.301 20.1216C168.059 19.421 168.964 19.0709 170.015 19.0709C171.065 19.0709 171.967 19.4213 172.719 20.1216C173.471 20.8221 173.847 21.665 173.847 22.6507ZM204.157 49.1854H192.465V47.7653C192.711 47.7396 193.01 47.7069 193.36 47.6679C193.71 47.629 193.975 47.5646 194.157 47.4734C194.43 47.331 194.624 47.1232 194.741 46.8509C194.857 46.5787 194.916 46.1767 194.916 45.6448V36.5406C194.916 35.2176 194.672 34.2225 194.184 33.5542C193.697 32.8864 192.978 32.5524 192.028 32.5524C191.508 32.5524 191.024 32.6301 190.575 32.7859C190.127 32.9415 189.688 33.1686 189.258 33.4668C188.881 33.7264 188.579 33.992 188.351 34.2645C188.154 34.4996 187.962 34.7397 187.776 34.9845V45.431C187.776 45.885 187.841 46.2646 187.97 46.569C188.1 46.874 188.314 47.1042 188.612 47.2595C188.82 47.3764 189.079 47.4804 189.39 47.5708C189.702 47.6619 190.006 47.7264 190.305 47.7655V49.1854H178.477V47.7653C178.805 47.7391 179.133 47.7034 179.459 47.6582C179.79 47.6128 180.072 47.5513 180.306 47.4734C180.721 47.331 181.006 47.1104 181.162 46.812C181.317 46.5138 181.395 46.1247 181.395 45.6446V34.3221C181.395 33.9203 181.291 33.5246 181.084 33.1357C180.876 32.7465 180.604 32.4289 180.267 32.1823C180.033 32.0267 179.738 31.8972 179.382 31.7932C179.025 31.6896 178.633 31.6184 178.205 31.5794V30.1593L187.484 29.6535L187.776 29.9454V32.766H187.854C188.293 32.375 188.734 31.9859 189.177 31.5989C189.695 31.1451 190.175 30.7755 190.616 30.49C191.096 30.1785 191.725 29.9129 192.503 29.6922C193.281 29.4718 194.111 29.3615 194.993 29.3615C197.107 29.3615 198.693 29.9616 199.75 31.1611C200.807 32.3607 201.335 33.9529 201.335 35.9372V45.4698C201.335 45.9499 201.406 46.3326 201.549 46.6174C201.692 46.903 201.958 47.1298 202.347 47.2983C202.554 47.3895 202.81 47.4802 203.115 47.5705C203.42 47.6617 203.767 47.7261 204.156 47.7653V49.1852L204.157 49.1854ZM214.973 49.847C213.723 49.8483 212.481 49.6614 211.287 49.2926C210.087 48.9229 209.157 48.5309 208.495 48.1157L207.912 49.4384H206.394L206.141 42.1819H207.561C207.756 42.7654 208.08 43.4239 208.534 44.1565C208.988 44.8892 209.507 45.5475 210.091 46.1314C210.7 46.7148 211.397 47.2078 212.182 47.6099C212.967 48.0121 213.807 48.2131 214.701 48.2131C215.881 48.2131 216.76 47.9829 217.337 47.5225C217.914 47.0621 218.203 46.352 218.203 45.3923C218.203 44.8737 218.073 44.4458 217.814 44.1083C217.554 43.7712 217.198 43.4792 216.744 43.2329C216.238 42.9735 215.684 42.753 215.08 42.5711C214.477 42.39 213.735 42.1695 212.853 41.9097C211.971 41.6505 211.216 41.3875 210.587 41.1217C209.957 40.8561 209.306 40.4378 208.632 39.8669C208.048 39.3611 207.581 38.752 207.231 38.0386C206.881 37.3255 206.706 36.4759 206.706 35.4899C206.706 33.6616 207.474 32.183 209.011 31.0546C210.548 29.9262 212.562 29.362 215.052 29.362C216.232 29.362 217.318 29.4822 218.31 29.7221C219.302 29.9623 220.136 30.2246 220.81 30.5101L221.219 29.3624H222.697L223.008 35.9961H221.647C221.192 34.6477 220.414 33.4838 219.312 32.5044C218.21 31.5252 217.023 31.0353 215.752 31.0353C214.753 31.0353 213.969 31.243 213.398 31.658C212.827 32.0732 212.542 32.65 212.542 33.3893C212.542 34.3752 212.959 35.0886 213.795 35.5293C214.63 35.9706 215.798 36.3852 217.3 36.7743C219.617 37.3711 221.313 38.1847 222.388 39.2157C223.463 40.247 224 41.56 224 43.155C224 45.2821 223.166 46.9293 221.5 48.0962C219.833 49.2634 217.658 49.847 214.973 49.847H214.973Z" fill="black"/>
</svg>
