<svg width="224" height="58" viewBox="0 0 224 58" fill="none" xmlns="http://www.w3.org/2000/svg">
<path d="M24.9813 4.36835C21.5506 4.36755 18.1967 5.38379 15.3438 7.28854C12.4909 9.19329 10.2672 11.901 8.95373 15.0692C7.64031 18.2375 7.29625 21.7239 7.96505 25.0876C8.63385 28.4513 10.2855 31.5412 12.711 33.9665C15.1366 36.3919 18.2272 38.0437 21.5919 38.713C24.9566 39.3824 28.4443 39.0392 31.6139 37.727C34.7835 36.4148 37.4927 34.1924 39.3987 31.3409C41.3048 28.4894 42.3222 25.1369 42.3222 21.7074C42.3179 17.1108 40.4896 12.7037 37.2386 9.45302C33.9876 6.20236 29.5794 4.37372 24.9813 4.36835ZM24.9813 43.137C20.7415 43.137 16.5969 41.8802 13.0716 39.5255C9.54632 37.1707 6.79871 33.8239 5.1762 29.9082C3.5537 25.9924 3.12918 21.6836 3.95632 17.5267C4.78347 13.3698 6.82513 9.5514 9.82313 6.55442C12.8211 3.55744 16.6408 1.51647 20.7991 0.689605C24.9575 -0.13726 29.2677 0.287117 33.1848 1.90907C37.1019 3.53102 40.4498 6.27771 42.8053 9.80178C45.1609 13.3259 46.4181 17.469 46.4181 21.7074C46.4117 27.3889 44.1511 32.8359 40.1323 36.8533C36.1135 40.8707 30.6647 43.1305 24.9813 43.137ZM50.1531 57.395H0V53.5396H50.1531V57.395Z" fill="#40BE46"/>
<path d="M71.1804 29.8113H77.0851L81.5987 57.5286H77.2432L76.4321 52.0273V52.1044H71.4967L70.7059 57.5286H66.6505L71.1804 29.8113ZM75.9333 48.3422L73.9948 34.6437H73.9137L72.0118 48.3422H75.9333Z" fill="#1D1D1B"/>
<path d="M83.6995 29.8113H90.1557C92.3997 29.8113 94.0367 30.3329 95.0667 31.3761C96.0968 32.4194 96.6119 34.0234 96.6119 36.1883V37.8909C96.6119 40.7666 95.6656 42.5882 93.7731 43.3558V43.4328C94.2683 43.5673 94.7268 43.8117 95.1144 44.1479C95.502 44.4842 95.8087 44.9035 96.0117 45.3747C96.4949 46.6231 96.7171 47.9573 96.6646 49.2949V54.1597C96.6573 54.8012 96.683 55.4426 96.7416 56.0814C96.8003 56.5807 96.9371 57.0677 97.1472 57.5246H92.6903C92.5412 57.1151 92.4352 56.6912 92.374 56.2597C92.3067 55.5483 92.2796 54.8337 92.2929 54.1192V49.0517C92.2929 47.7868 92.0901 46.899 91.6805 46.4003C91.2709 45.9017 90.5653 45.6463 89.5595 45.6463H88.055V57.5246H83.6995V29.8113ZM89.6406 41.6896C89.9958 41.7173 90.3529 41.6719 90.6898 41.5562C91.0268 41.4404 91.3363 41.2568 91.5994 41.0166C92.0374 40.5707 92.2523 39.8004 92.2523 38.7585V36.622C92.2523 35.6207 92.0779 34.895 91.721 34.445C91.5115 34.2095 91.25 34.026 90.9571 33.9091C90.6643 33.7923 90.3482 33.7454 90.034 33.7721H88.055V41.6896H89.6406Z" fill="#1D1D1B"/>
<path d="M102.991 33.7721H98.4408V29.8113H111.909V33.7721H107.363V57.5286H102.991V33.7721Z" fill="#1D1D1B"/>
<path d="M114.001 29.8113H118.361V57.5286H114.001V29.8113Z" fill="#1D1D1B"/>
<path d="M121.605 29.8113H133.135V33.7721H125.965V41.4747H131.59V45.4355H125.965V57.5124H121.605V29.8113Z" fill="#1D1D1B"/>
<path d="M137.332 29.8113H143.237L147.75 57.5286H143.395L142.584 52.0273V52.1044H137.648L136.858 57.5286H132.802L137.332 29.8113ZM142.085 48.3422L140.146 34.6437H140.065L138.184 48.3422H142.085Z" fill="#1D1D1B"/>
<path d="M151.137 56.1463C150.042 54.9571 149.494 53.2801 149.494 51.1153V36.2248C149.494 34.0627 150.042 32.387 151.137 31.1978C152.232 30.0087 153.823 29.4141 155.91 29.4141C158 29.4141 159.591 30.0087 160.683 31.1978C161.775 32.387 162.324 34.0627 162.329 36.2248V39.1559H158.209V35.9492C158.209 34.2329 157.483 33.3748 156.031 33.3748C154.58 33.3748 153.85 34.2343 153.85 35.9492V51.4315C153.85 53.122 154.58 53.9652 156.031 53.9652C157.483 53.9652 158.209 53.122 158.209 51.4315V47.195H162.329V51.1071C162.329 53.2693 161.781 54.9463 160.683 56.1382C159.585 57.3301 157.994 57.9233 155.91 57.9179C153.825 57.9233 152.234 57.3328 151.137 56.1463Z" fill="#1D1D1B"/>
<path d="M168.348 33.7721H163.794V29.8113H177.262V33.7721H172.707V57.5286H168.348V33.7721Z" fill="#1D1D1B"/>
<path d="M180.591 56.1058C179.455 54.8896 178.888 53.1734 178.888 50.9572V36.3829C178.888 34.1667 179.455 32.4519 180.591 31.2384C181.726 30.0249 183.364 29.4168 185.502 29.4141C187.638 29.4141 189.275 30.0222 190.413 31.2384C191.551 32.4546 192.119 34.1694 192.116 36.3829V50.9572C192.116 53.1734 191.549 54.8896 190.413 56.1058C189.278 57.322 187.641 57.9287 185.502 57.926C183.366 57.926 181.729 57.3193 180.591 56.1058ZM187.761 51.2409V36.1073C187.761 34.2856 187.008 33.3748 185.502 33.3748C183.996 33.3748 183.243 34.2856 183.243 36.1073V51.2328C183.243 53.0571 183.996 53.9679 185.502 53.9652C187.008 53.9625 187.761 53.0517 187.761 51.2328V51.2409Z" fill="#1D1D1B"/>
<path d="M195.049 29.8113H201.505C203.751 29.8113 205.389 30.3329 206.416 31.3761C207.443 32.4194 207.958 34.0234 207.961 36.1883V37.8909C207.961 40.7666 207.015 42.5882 205.122 43.3558V43.4328C205.618 43.5667 206.076 43.811 206.464 44.1473C206.852 44.4836 207.158 44.9032 207.361 45.3747C207.844 46.6231 208.066 47.9573 208.014 49.2949V54.1597C208.007 54.8013 208.035 55.4427 208.095 56.0814C208.153 56.5808 208.29 57.0678 208.5 57.5246H204.039C203.89 57.1151 203.784 56.6912 203.723 56.2597C203.658 55.5482 203.632 54.8336 203.646 54.1192V49.0517C203.646 47.7868 203.439 46.899 203.03 46.4003C202.62 45.9017 201.914 45.6463 200.913 45.6463H199.42V57.5246H195.049V29.8113ZM200.99 41.6896C201.346 41.7169 201.703 41.6714 202.041 41.5556C202.378 41.4399 202.689 41.2565 202.953 41.0166C203.385 40.5707 203.603 39.818 203.605 38.7585V36.622C203.605 35.6193 203.427 34.8937 203.07 34.445C202.861 34.21 202.6 34.0269 202.308 33.9101C202.016 33.7933 201.701 33.746 201.387 33.7721H199.42V41.6896H200.99Z" fill="#1D1D1B"/>
<path d="M214.381 45.7314L209.109 29.8113H213.744L216.713 39.9869H216.794L219.762 29.8113H224L218.728 45.7314V57.5286H214.381V45.7314Z" fill="#1D1D1B"/>
<path d="M79.0398 19.5305H76.1361V5.53198H84.1618V7.9644H79.0398V11.5725H83.7927V14.0049H79.0398V19.5305ZM92.6294 8.6252C92.9613 8.61931 93.2929 8.64784 93.619 8.71034L93.3959 11.4509C93.1149 11.3806 92.8258 11.3479 92.5362 11.3536C91.7451 11.3051 90.9656 11.562 90.3584 12.0711C90.0887 12.332 89.879 12.6485 89.7438 12.9985C89.6087 13.3485 89.5513 13.7237 89.5757 14.0981V19.5305H86.6558V8.82385H88.866L89.3 10.6238H89.4419C89.763 10.0368 90.2258 9.53924 90.7883 9.17655C91.3337 8.81428 91.9746 8.62236 92.6294 8.6252ZM97.9015 14.1589C97.8486 14.9933 98.0298 15.8259 98.4246 16.563C98.6108 16.8363 98.8661 17.0554 99.1647 17.1978C99.4632 17.3403 99.7942 17.401 100.124 17.3738C100.451 17.4006 100.78 17.3396 101.076 17.197C101.371 17.0545 101.624 16.8356 101.807 16.563C102.194 15.8221 102.371 14.9892 102.318 14.1549C102.366 13.3302 102.182 12.5086 101.787 11.7833C101.581 11.535 101.323 11.3352 101.031 11.198C100.739 11.0609 100.42 10.9898 100.097 10.9898C99.7749 10.9898 99.4563 11.0609 99.1643 11.198C98.8724 11.3352 98.6143 11.535 98.4084 11.7833C98.0163 12.511 97.8365 13.3341 97.8893 14.1589H97.9015ZM105.307 14.1589C105.307 15.9022 104.847 17.2643 103.928 18.2454C103.009 19.2265 101.72 19.7184 100.063 19.7211C99.1118 19.7419 98.1723 19.5082 97.3418 19.044C96.5564 18.5963 95.9256 17.9205 95.5331 17.1062C95.0936 16.1871 94.8769 15.1774 94.9005 14.1589C94.9005 12.4103 95.356 11.0509 96.2671 10.0806C97.1783 9.11033 98.4625 8.6252 100.12 8.6252C101.069 8.60553 102.006 8.83625 102.837 9.29412C103.622 9.73804 104.254 10.4094 104.65 11.2198C105.094 12.1349 105.314 13.1421 105.294 14.1589H105.307ZM109.837 12.3306C109.813 12.8225 109.956 13.308 110.242 13.7089C110.386 13.8779 110.567 14.0115 110.771 14.0994C110.975 14.1873 111.196 14.2271 111.418 14.2157C111.647 14.2362 111.877 14.2008 112.089 14.1125C112.301 14.0243 112.488 13.8857 112.635 13.7089C112.91 13.3039 113.046 12.8198 113.02 12.3306C113.02 11.0414 112.49 10.3968 111.43 10.3968C110.37 10.3968 109.835 11.0414 109.824 12.3306H109.837ZM108.774 21.0427C108.773 21.239 108.827 21.4317 108.929 21.5993C109.032 21.7668 109.179 21.9026 109.354 21.9913C109.854 22.2484 110.414 22.3673 110.976 22.3359C111.82 22.38 112.663 22.2374 113.446 21.9183C113.695 21.8346 113.913 21.6775 114.072 21.4677C114.23 21.258 114.322 21.0053 114.334 20.7427C114.348 20.561 114.303 20.3797 114.205 20.2261C114.107 20.0726 113.961 19.955 113.791 19.8913C113.269 19.715 112.719 19.638 112.168 19.6643H110.648C110.171 19.6475 109.7 19.7792 109.301 20.0413C109.133 20.1484 108.996 20.2967 108.901 20.4719C108.807 20.6472 108.759 20.8436 108.762 21.0427H108.774ZM117.027 8.82385V10.3117L115.348 10.7414C115.659 11.2244 115.82 11.7887 115.81 12.363C115.834 12.8746 115.736 13.3845 115.524 13.851C115.313 14.3175 114.994 14.7272 114.593 15.0468C113.782 15.6873 112.679 16.0076 111.256 16.0076L110.729 15.9792L110.299 15.9306C110.168 16.0134 110.059 16.126 109.981 16.2593C109.903 16.3925 109.857 16.5425 109.849 16.6968C109.849 17.1022 110.384 17.3292 111.471 17.3292H113.292C114.462 17.3292 115.357 17.5819 115.976 18.0873C116.29 18.3597 116.537 18.7007 116.697 19.0839C116.858 19.4671 116.927 19.8822 116.901 20.2967C116.919 20.8767 116.784 21.4511 116.509 21.9621C116.234 22.4732 115.829 22.9027 115.336 23.2075C114.292 23.8967 112.793 24.2413 110.838 24.2413C109.346 24.2413 108.202 23.9778 107.415 23.4589C107.042 23.2318 106.736 22.91 106.528 22.5261C106.32 22.1423 106.218 21.7101 106.231 21.2738C106.215 20.6754 106.432 20.094 106.836 19.6521C107.321 19.1739 107.938 18.8508 108.608 18.7238C108.296 18.5877 108.024 18.3725 107.821 18.0995C107.602 17.8214 107.485 17.4768 107.488 17.1229C107.492 16.769 107.617 16.427 107.841 16.1535C108.137 15.8295 108.484 15.5557 108.867 15.3427C108.309 15.1045 107.841 14.6958 107.529 14.1752C107.189 13.6016 107.018 12.9442 107.034 12.2779C107.006 11.7714 107.095 11.2654 107.292 10.7982C107.49 10.331 107.791 9.915 108.174 9.58195C108.932 8.94142 110.019 8.6252 111.418 8.6252C111.775 8.63015 112.131 8.65723 112.485 8.70628C112.89 8.75899 113.158 8.79952 113.275 8.82385H117.027ZM68.1592 23.6454C67.5683 23.6558 66.9788 23.5848 66.4072 23.4346V20.9657C66.8643 21.0848 67.334 21.1488 67.8063 21.1562C68.072 21.1814 68.3396 21.1388 68.5843 21.0325C68.829 20.9261 69.0427 20.7595 69.2055 20.5481C69.5232 19.9674 69.6642 19.3065 69.611 18.6468V5.53198H72.5795V18.6305C72.5795 20.2521 72.2065 21.4967 71.4603 22.3643C70.7262 23.2197 69.6232 23.6454 68.1592 23.6454Z" fill="#40BE46"/>
</svg>
