<svg width="179" height="40" viewBox="0 0 179 40" fill="none" xmlns="http://www.w3.org/2000/svg">
<path d="M172.024 19.4522C172.024 17.9986 173.234 16.9731 174.919 16.9731C176.462 16.9731 177.34 17.6878 177.34 18.9274C177.34 20.0471 176.391 20.6676 174.919 21.3109L172.024 22.5505V19.4522ZM174.634 28.3432C176.295 28.3432 177.743 27.6999 178.478 26.389C178.716 25.9839 178.669 25.5074 178.313 25.2691C177.956 25.031 177.482 25.1023 177.245 25.4603C176.604 26.3903 175.798 26.8425 174.634 26.8425C172.925 26.8425 172.024 25.961 172.024 24.3634V24.1494L175.417 22.6959C178.027 21.576 179 20.8371 179 18.7874C179 16.7375 177.409 15.4737 174.894 15.4737C172.379 15.4737 170.408 17.1426 170.408 19.4536V24.3634C170.408 26.7712 172.046 28.3432 174.633 28.3432H174.634ZM167.8 15.5909C165.426 15.5909 163.765 17.3311 163.765 19.9529V27.4132C163.765 27.8654 164.097 28.2234 164.571 28.2234C165.045 28.2234 165.378 27.8654 165.378 27.4132V19.9529C165.378 18.3554 166.209 17.1642 167.822 17.1642C168.083 17.1642 168.487 17.2597 168.7 17.2597C169.128 17.2597 169.46 16.9731 169.46 16.4966C169.46 16.1386 169.247 15.8291 168.795 15.7106C168.463 15.6151 168.131 15.5909 167.798 15.5909H167.8ZM154.207 24.887C154.207 23.7671 155.156 23.1468 156.627 22.5034L159.523 21.2637V24.362C159.523 25.8156 158.313 26.8411 156.627 26.8411C155.085 26.8411 154.207 26.1265 154.207 24.887ZM156.913 15.4724C155.251 15.4724 153.804 16.1157 153.068 17.4266C152.831 17.8317 152.878 18.3082 153.234 18.5464C153.59 18.7846 154.065 18.7134 154.302 18.3554C154.943 17.4252 155.749 16.9731 156.913 16.9731C158.621 16.9731 159.523 17.8546 159.523 19.4522V19.6662L156.13 21.1197C153.519 22.2396 152.547 22.9785 152.547 25.0282C152.547 27.078 154.137 28.3419 156.653 28.3419C159.168 28.3419 161.138 26.673 161.138 24.362V19.4522C161.138 17.0444 159.499 15.4724 156.913 15.4724ZM142.269 22.7416V17.2597C142.269 14.9717 143.954 13.2072 146.113 13.2072C147.751 13.2072 148.962 13.9219 149.651 15.2571C149.841 15.638 150.292 15.8049 150.695 15.6151C151.073 15.424 151.218 14.9717 151.027 14.5895C150.125 12.7066 148.37 11.6581 146.113 11.6581C143.006 11.6581 140.585 14.0889 140.585 17.2597V22.7416C140.585 25.9111 143.006 28.3432 146.113 28.3432C148.369 28.3432 150.125 27.2947 151.027 25.4119C151.218 25.031 151.073 24.5774 150.695 24.3863C150.292 24.1951 149.84 24.362 149.651 24.7442C148.962 26.0794 147.751 26.7941 146.113 26.7941C143.954 26.7941 142.269 25.031 142.269 22.7416ZM129.209 27.5356C129.209 27.8667 129.541 28.2234 130.015 28.2234C130.49 28.2234 130.822 27.8654 130.822 27.4132V19.9797C130.822 18.3822 132.103 17.0955 133.693 17.0955C135.285 17.0955 136.566 18.3822 136.566 19.9797V27.4132C136.566 27.8654 136.898 28.2234 137.372 28.2234C137.847 28.2234 138.179 27.8654 138.179 27.4132V19.9797C138.179 17.572 136.281 15.5935 133.907 15.5935C132.696 15.5935 131.605 16.1185 130.822 16.9515V12.5867C130.822 12.1346 130.49 11.7766 130.015 11.7766C129.541 11.7766 129.209 12.1346 129.209 12.7093V27.5356ZM123.941 15.7106V12.5881C123.941 12.1359 123.608 11.7779 123.134 11.7779C122.66 11.7779 122.327 12.1359 122.327 12.5881V15.7106H120.357C119.93 15.7106 119.622 16.0202 119.622 16.4737C119.622 16.9031 119.93 17.2126 120.357 17.2126H122.327V23.8628C122.327 25.078 122.731 26.1992 123.466 27.0094C124.273 27.891 125.295 28.2247 126.552 28.2247C127.074 28.2247 127.407 27.8196 127.382 27.3902C127.358 26.961 127.002 26.6756 126.575 26.6756C124.796 26.6756 123.941 25.4845 123.941 23.8628V17.2126H126.646C127.074 17.2126 127.382 16.9031 127.382 16.4495C127.382 16.0201 127.074 15.7106 126.646 15.7106H123.941ZM120.144 27.6043C120.168 27.175 119.836 26.8411 119.408 26.7941C118.436 26.6985 117.89 26.1022 117.89 24.9825V12.5881C117.89 12.1359 117.558 11.7779 117.083 11.7779C116.609 11.7779 116.277 12.1359 116.277 12.5881V24.9825C116.277 25.8882 116.538 26.6743 117.012 27.2463C117.558 27.9381 118.342 28.3432 119.315 28.3432C119.789 28.3432 120.121 28.0094 120.146 27.6043H120.144ZM106.573 24.887C106.573 23.7671 107.522 23.1468 108.993 22.5034L111.889 21.2637V24.362C111.889 25.8156 110.679 26.8411 108.993 26.8411C107.451 26.8411 106.573 26.1265 106.573 24.887ZM109.279 15.4724C107.617 15.4724 106.17 16.1157 105.434 17.4266C105.197 17.8317 105.244 18.3082 105.6 18.5464C105.956 18.7846 106.431 18.7134 106.668 18.3554C107.309 17.4252 108.115 16.9731 109.279 16.9731C110.987 16.9731 111.889 17.8546 111.889 19.4522V19.6662L108.496 21.1197C105.886 22.2396 104.913 22.9785 104.913 25.0282C104.913 27.078 106.503 28.3419 109.019 28.3419C111.534 28.3419 113.504 26.673 113.504 24.362V19.4522C113.504 17.0444 111.866 15.4724 109.28 15.4724H109.279ZM96.273 19.4522C96.273 17.9986 97.483 16.9731 99.169 16.9731C100.711 16.9731 101.589 17.6878 101.589 18.9274C101.589 20.0471 100.64 20.6676 99.169 21.3109L96.273 22.5505V19.4522ZM98.8834 28.3432C100.545 28.3432 101.993 27.6999 102.728 26.389C102.965 25.9839 102.918 25.5074 102.562 25.2691C102.206 25.031 101.731 25.1023 101.494 25.4603C100.853 26.3903 100.047 26.8425 98.8834 26.8425C97.1748 26.8425 96.273 25.961 96.273 24.3634V24.1494L99.6661 22.6959C102.277 21.576 103.25 20.8371 103.25 18.7874C103.25 16.7375 101.659 15.4737 99.1434 15.4737C96.6281 15.4737 94.6581 17.1426 94.6581 19.4536V24.3634C94.6581 26.7712 96.2958 28.3432 98.8821 28.3432H98.8834ZM91.8144 27.3661V12.6366C91.8144 12.1359 91.4821 11.7779 90.9594 11.7779C90.4368 11.7779 90.1044 12.1359 90.1044 12.6366V19H82.6133V12.6366C82.6133 12.1359 82.281 11.7779 81.7583 11.7779C81.2356 11.7779 80.9033 12.1359 80.9033 12.6366V27.3661C80.9033 27.8425 81.2597 28.2247 81.7583 28.2247C82.2568 28.2247 82.6133 27.8668 82.6133 27.3661V20.502H90.1044V27.3661C90.1044 27.8668 90.4368 28.2247 90.9594 28.2247C91.4821 28.2247 91.8144 27.8668 91.8144 27.3661ZM73.7753 28.105C74.2027 28.105 74.511 27.7954 74.511 27.3661C74.511 26.9139 74.2027 26.603 73.7753 26.603H66.8095V20.5006H73.2058C73.6332 20.5006 73.9415 20.1911 73.9415 19.7617C73.9415 19.3095 73.6332 18.9986 73.2058 18.9986H66.8095V13.397H73.7753C74.2027 13.397 74.511 13.0875 74.511 12.6339C74.511 12.2046 74.2027 11.895 73.7753 11.895H65.9785C65.4801 11.895 65.1478 12.253 65.1478 12.7295V27.2691C65.1478 27.7456 65.4801 28.1036 65.9785 28.1036H73.7753V28.105ZM62.1821 22.7416V20.1669C62.1821 19.6905 61.8498 19.3324 61.3512 19.3324H56.8659C56.4384 19.3324 56.1301 19.642 56.1301 20.0714C56.1301 20.5235 56.4384 20.8345 56.8659 20.8345H60.5204V22.7416C60.5204 24.9825 58.8118 26.7941 56.7466 26.7941C54.6815 26.7941 52.997 25.0067 52.997 22.7416V17.2597C52.997 14.9717 54.6104 13.2072 56.6997 13.2072C58.2904 13.2072 59.4295 13.9219 60.117 15.2571C60.3073 15.638 60.7575 15.8049 61.1609 15.6151C61.5402 15.424 61.6836 14.9717 61.4933 14.5895C60.5913 12.7066 58.9069 11.6581 56.6997 11.6581C53.6617 11.6581 51.3126 14.0889 51.3126 17.2597V22.7416C51.3126 25.8882 53.6858 28.3432 56.7466 28.3432C59.8075 28.3432 62.1807 25.7927 62.1807 22.7416H62.1821ZM24.3831 14.7927C24.3831 12.5209 25.9136 10.3122 26.7511 10.7322C27.7026 11.2113 26.0382 13.3526 24.3831 14.7927ZM13.9558 15.6231C13.9558 13.7954 15.7529 10.319 16.8518 10.6851C18.1477 11.1184 15.7771 14.6245 13.9558 15.6231ZM12.136 28.6985C11.3091 28.7362 10.7583 28.2046 10.7583 27.319C10.7583 24.9367 14.0457 22.6635 16.5288 21.4427C16.088 24.7671 14.9703 28.568 12.136 28.6985ZM27.306 20.9421C25.4324 20.9421 23.9959 22.3284 23.9959 23.9892C23.9959 25.3755 24.8227 26.4819 25.9269 26.4819C26.3143 26.4819 26.6975 26.2611 26.6975 25.7617C26.6975 25.0417 25.7473 24.8667 25.8211 23.7887C25.8679 23.0781 26.5341 22.603 27.1947 22.603C28.5187 22.603 29.1378 23.891 29.1378 25.2207C29.0815 27.2705 27.5807 28.6971 25.8158 28.6971C23.4987 28.6971 22.0112 26.4805 22.0112 24.0969C22.0112 20.5519 24.3268 19.1669 25.5397 18.8345C25.5517 18.8345 28.713 19.4011 28.6138 18.0014C28.571 17.3876 27.6597 17.1521 26.999 17.1239C26.266 17.0942 25.5303 17.3594 25.5303 17.3594C25.1443 17.1642 24.8777 16.7832 24.7142 16.3419C26.9749 14.6231 28.575 12.9624 28.575 11.0781C28.575 10.0807 27.913 9.19381 26.644 9.19381C24.3831 9.19381 22.6719 12.074 22.6719 14.6784C22.6719 15.1211 22.6719 15.5652 22.783 15.9529C21.3492 17.0054 20.2825 17.6581 18.3513 18.8224C18.3513 18.5787 18.4023 17.9556 18.5644 17.1426C19.2264 16.4226 20.1351 15.3445 20.1351 14.5127C20.1351 14.1251 19.9153 13.7927 19.4731 13.7927C18.3701 13.7927 17.5433 15.4536 17.3221 16.6177C16.825 17.2275 15.8333 18.004 15.0051 18.004C14.3431 18.004 14.1233 17.393 14.0671 17.1722C16.1643 16.4509 18.756 13.5706 18.756 10.9663C18.756 10.4118 18.535 9.19246 16.8813 9.19246C14.398 9.19246 12.3021 12.9045 12.3021 15.786C11.419 15.786 11.0893 14.8439 11.0893 14.1239C11.0893 13.4037 11.3654 12.6824 11.3654 12.4616C11.3654 12.2409 11.2542 11.9623 10.9232 11.9623C10.095 11.9623 9.59916 13.07 9.59916 14.3445C9.65544 16.1171 10.8133 17.2261 12.3584 17.3365C12.5795 18.389 13.5176 19.3862 14.6754 19.3862C15.3937 19.3862 16.2755 19.1655 16.8826 18.611C16.8263 19 16.7727 19.3311 16.7165 19.6635C14.2895 20.9381 12.5246 21.825 10.9245 23.2637C9.65678 24.428 8.93847 25.9785 8.93847 27.1992C8.93847 28.8614 9.98644 30.4105 12.1373 30.4105C14.6754 30.4105 16.6052 28.362 17.5433 25.5356C17.9855 24.2059 18.1624 22.2719 18.2723 20.498C20.8104 19.0579 22.0138 18.2234 23.3353 17.2812C23.5014 17.5585 23.6689 17.7806 23.8874 17.9461C22.7295 18.5559 19.9715 20.2732 19.9715 24.3162C19.9715 27.1979 21.9026 30.4105 25.7085 30.4105C28.8524 30.4105 31.0046 27.8089 31.0046 25.315C31.0046 23.0431 29.7355 20.9381 27.3072 20.9381L27.306 20.9421ZM36.7898 25.6999C36.7804 25.7174 36.7483 25.7429 36.6879 25.7214C36.6411 25.7039 36.6263 25.6796 36.6277 25.6501C36.6304 25.6177 37.295 23.6474 37.2911 21.3849C37.283 18.9461 36.2966 17.4509 35.0303 17.4509C34.257 17.4509 33.7063 18.0054 33.7063 18.8357C33.7063 20.3324 35.5261 20.4427 35.5261 23.712C35.5261 25.0417 35.25 26.3136 34.8092 27.7012C32.7682 34.6259 26.258 37.8385 19.9153 37.8385C16.9912 37.8385 14.9127 37.2355 14.2936 36.9569C14.2681 36.9449 14.2479 36.895 14.2667 36.8466C14.2815 36.8075 14.3243 36.7792 14.3471 36.79C14.599 36.8896 16.3828 37.4522 18.5885 37.4522C21.0155 37.4522 22.4507 36.4562 22.4507 35.2341C22.4507 34.4602 21.8437 33.8506 21.0704 33.8506C19.5816 33.8506 19.4703 35.7335 16.2715 35.7335C14.8925 35.7335 13.6797 35.4576 12.2445 35.0135C5.40462 32.9085 2.14416 26.4252 2.14952 19.9986C2.15221 16.8695 3.02461 14.3769 3.03935 14.3526C3.05007 14.3365 3.08894 14.319 3.13718 14.3365C3.18676 14.3526 3.20017 14.3958 3.1948 14.4078C3.1144 14.6676 2.53548 16.4536 2.53548 18.6689C2.53548 21.1076 3.52849 22.5478 4.79623 22.5478C5.51318 22.5478 6.12024 21.9932 6.12024 21.2194C6.12024 19.7227 4.30039 19.5572 4.30039 16.3432C4.30039 14.9569 4.57645 13.7389 5.01734 12.2988C7.11326 5.42934 13.5672 2.20861 19.9126 2.16016C22.8608 2.13729 25.4419 3.02288 25.5384 3.10094C25.5558 3.11575 25.5745 3.15477 25.5558 3.20054C25.5356 3.25169 25.5008 3.25841 25.4833 3.25572C25.4526 3.25169 23.7747 2.54777 21.2352 2.54777C18.8646 2.54777 17.3758 3.54374 17.3758 4.81965C17.3758 5.5397 17.9265 6.14805 18.7534 6.14805C20.2436 6.14805 20.3548 4.32032 23.5523 4.32032C24.9326 4.32032 26.144 4.59757 27.5793 5.04037C34.4768 7.14535 37.6153 13.6837 37.6743 19.9986C37.7051 23.2341 36.7966 25.6838 36.7885 25.6999H36.7898ZM19.9153 0.939435C9.43432 0.939435 0.936731 9.47241 0.936731 19.9972C0.936731 30.5222 9.43297 39.0551 19.9153 39.0551C30.3975 39.0551 38.8898 30.5249 38.8898 19.9972C38.8898 9.46971 30.3962 0.939435 19.9153 0.939435ZM19.9153 39.9986C8.93714 39.9986 0 31.0794 0 19.9986C0 8.9179 8.93446 0 19.9126 0C30.8907 0 39.8265 8.97442 39.8265 20C39.8265 31.0256 30.888 40 19.9126 40L19.9153 39.9986Z" fill="white"/>
</svg>
