<svg width="223" height="60" viewBox="0 0 223 60" fill="none" xmlns="http://www.w3.org/2000/svg">
<g filter="url(#filter0_d_25_9)">
<path d="M5.14686 39.8102C6.33437 40.5352 8.79909 41.3846 10.7053 41.3846C12.6606 41.3846 13.4654 40.7027 13.4654 39.6439C13.4654 38.5851 12.8316 38.0707 10.41 37.2643C6.12031 35.8191 4.46998 33.4826 4.50825 31.0181C4.50825 27.1502 7.82205 24.2227 12.956 24.2227C15.3777 24.2227 17.541 24.7707 18.8158 25.4095L17.6714 29.8684C16.7374 29.3587 14.9543 28.6816 13.1713 28.6816C11.5987 28.6816 10.7065 29.3157 10.7065 30.3792C10.7065 31.3567 11.5173 31.8675 14.0622 32.7588C18.0086 34.1179 19.6685 36.1086 19.7068 39.1725C19.7068 43.0356 16.6513 45.8829 10.7065 45.8829C7.98948 45.8829 5.57259 45.2847 4 44.4377L5.14686 39.8102ZM42.425 34.8465C42.425 42.4482 37.034 45.9344 31.4707 45.9344C25.398 45.9296 20.734 41.9373 20.734 35.2233C20.734 28.5093 25.1481 24.2263 31.8175 24.2263C38.182 24.2263 42.425 28.599 42.425 34.8465ZM27.3951 35.0558C27.3951 38.6234 28.8816 41.2984 31.6417 41.2984C34.1531 41.2984 35.7603 38.7861 35.7603 35.0558C35.7603 31.956 34.574 28.8096 31.6417 28.8096C28.5432 28.8096 27.3951 31.9943 27.3951 35.0558ZM44.7271 31.3172C44.7271 28.7282 44.641 26.5198 44.5561 24.6941H50.1612L50.4566 27.5355H50.5857C51.4348 26.2195 53.5551 24.2263 56.9921 24.2263C61.2399 24.2263 64.4245 27.0258 64.4245 33.144V45.4666H57.9668V33.9504C57.9668 31.2741 57.0328 29.4485 54.6972 29.4485C52.9141 29.4485 51.8558 30.6783 51.4324 31.8711C51.2602 32.2527 51.1741 32.8868 51.1741 33.4826V45.4618H44.7271V31.3172ZM79.7116 45.4618L79.3325 43.3777H79.2129C77.8543 45.0371 75.7281 45.9296 73.2681 45.9296C69.0634 45.9296 66.5604 42.8681 66.5604 39.5577C66.5604 34.1645 71.399 31.5696 78.7453 31.6127V31.3172C78.7453 30.2105 78.1473 28.6421 74.9651 28.6421C72.8436 28.6421 70.5941 29.3599 69.2356 30.2105L68.0397 26.0532C69.4843 25.242 72.3306 24.2263 76.106 24.2263C83.0266 24.2263 85.2342 28.3035 85.2342 33.1871V40.4072C85.2342 42.4003 85.3203 44.3121 85.5343 45.4618H79.7116ZM78.9486 35.6516C75.5547 35.6085 72.9189 36.4185 72.9189 38.9225C72.9189 40.5818 74.0251 41.3882 75.4686 41.3882C76.2052 41.3913 76.9244 41.1634 77.525 40.7366C78.1255 40.3098 78.5774 39.7055 78.817 39.0086C78.9042 38.6462 78.9472 38.2747 78.945 37.902L78.9486 35.6516ZM88.6353 31.5277C88.6353 28.471 88.5492 26.4767 88.4642 24.6941H94.0263L94.2416 28.5129H94.4078C95.4709 25.4993 98.017 24.2263 100.014 24.2263C100.469 24.2088 100.924 24.2361 101.373 24.3077V30.3828C100.799 30.2699 100.217 30.2122 99.6326 30.2105C97.254 30.2105 95.6432 31.4895 95.2079 33.4826C95.124 33.9597 95.0839 34.4434 95.0883 34.9278V45.4618H88.6305L88.6353 31.5277ZM143.965 39.8532C143.965 41.9756 144.008 43.8455 144.136 45.4618H140.824L140.61 42.1048H140.528C139.551 43.7594 137.382 45.9332 133.736 45.9332C130.507 45.9332 126.642 44.1494 126.642 36.9293V24.9035H130.379V36.2821C130.379 40.187 131.566 42.825 134.965 42.825C137.468 42.825 139.208 41.0795 139.89 39.4249C140.114 38.8118 140.229 38.1638 140.228 37.5108V24.9035H143.965V39.8532ZM148.303 45.4618C148.389 44.0597 148.47 41.9756 148.47 40.1487V15.3038H152.162V28.2174H152.248C153.564 25.924 155.942 24.4357 159.255 24.4357C164.346 24.4357 167.955 28.6852 167.912 34.9278C167.912 42.2759 163.284 45.9344 158.703 45.9344C155.729 45.9344 153.354 44.7847 151.825 42.0665H151.696L151.529 45.4666L148.303 45.4618ZM152.162 37.2212C152.174 37.6788 152.232 38.134 152.333 38.5803C153.05 41.1704 155.217 42.953 157.934 42.953C161.844 42.953 164.175 39.7683 164.175 35.057C164.175 30.9367 162.053 27.4134 158.064 27.4134C155.518 27.4134 153.139 29.1541 152.376 31.9955C152.291 32.425 152.162 32.9311 152.162 33.5269V37.2212ZM173.015 35.8622C173.096 40.9168 176.324 42.9961 180.061 42.9961C182.735 42.9961 184.35 42.5295 185.747 41.9373L186.386 44.6124C185.07 45.2046 182.821 45.8865 179.55 45.8865C173.225 45.8865 169.445 41.7232 169.445 35.5236C169.445 29.324 173.096 24.4381 179.083 24.4381C185.79 24.4381 187.573 30.3421 187.573 34.1286C187.569 34.7108 187.529 35.2921 187.454 35.8693L173.015 35.8622ZM183.964 33.1871C184.007 30.8075 182.992 27.1108 178.787 27.1108C175.007 27.1108 173.353 30.597 173.047 33.1871H183.964Z" fill="#1B171B"/>
<path fill-rule="evenodd" clip-rule="evenodd" d="M122.206 28.6051C121.022 26.8626 119.367 25.4933 117.433 24.6571C115.5 23.821 113.369 23.5526 111.289 23.8833C109.209 24.214 107.266 25.1302 105.687 26.5247C104.108 27.9193 102.958 29.7346 102.373 31.7585C101.787 33.7824 101.789 35.9313 102.379 37.954C102.969 39.9768 104.122 41.7898 105.703 43.1811C107.285 44.5725 109.23 45.4848 111.311 45.8114C113.391 46.1379 115.522 45.8652 117.454 45.0252L121.748 52L125.155 49.6815L120.863 42.7055C122.694 40.8794 123.831 38.4708 124.076 35.8957C124.321 33.3206 123.66 30.7407 122.206 28.6015M117.396 41.2722C116.125 42.1369 114.625 42.6049 113.088 42.6172C111.551 42.6294 110.044 42.1852 108.759 41.3409C107.474 40.4966 106.468 39.29 105.869 37.8737C105.269 36.4574 105.103 34.895 105.391 33.3842C105.679 31.8734 106.408 30.4819 107.487 29.3858C108.565 28.2897 109.944 27.5382 111.45 27.2263C112.955 26.9143 114.52 27.0561 115.945 27.6335C117.37 28.2109 118.591 29.1981 119.456 30.4703C120.613 32.1764 121.046 34.2722 120.66 36.2974C120.273 38.3227 119.1 40.1119 117.396 41.2722Z" fill="#1B171B"/>
<path d="M213.109 45.548H210.478C210.478 24.3508 192.993 7.10405 171.503 7.10405V4.47205C194.444 4.47205 213.109 22.8985 213.109 45.548Z" fill="#4E9BCD"/>
<path d="M214.929 31.4129C211.768 18.113 200.998 7.00711 187.493 3.13328L188.091 1.02409C202.346 5.11805 213.717 16.846 217.057 30.9057L214.929 31.4129ZM216.953 18.9349C213.697 11.8344 208.152 5.64206 201.338 1.50024L202.249 0C209.36 4.32247 215.148 10.7864 218.548 18.2027L216.953 18.9349Z" fill="#4E9BCD"/>
</g>
<defs>
<filter id="filter0_d_25_9" x="0" y="0" width="222.548" height="60" filterUnits="userSpaceOnUse" color-interpolation-filters="sRGB">
<feFlood flood-opacity="0" result="BackgroundImageFix"/>
<feColorMatrix in="SourceAlpha" type="matrix" values="0 0 0 0 0 0 0 0 0 0 0 0 0 0 0 0 0 0 127 0" result="hardAlpha"/>
<feOffset dy="4"/>
<feGaussianBlur stdDeviation="2"/>
<feComposite in2="hardAlpha" operator="out"/>
<feColorMatrix type="matrix" values="0 0 0 0 0 0 0 0 0 0 0 0 0 0 0 0 0 0 0.25 0"/>
<feBlend mode="normal" in2="BackgroundImageFix" result="effect1_dropShadow_25_9"/>
<feBlend mode="normal" in="SourceGraphic" in2="effect1_dropShadow_25_9" result="shape"/>
</filter>
</defs>
</svg>
